<svg width="40" height="57" viewBox="0 0 40 57" fill="none" xmlns="http://www.w3.org/2000/svg">
<path d="M26.1703 23.2171C27.4547 24.8891 27.1997 27.2954 25.7186 28.7927L21.6561 32.8996C20.7413 33.8244 19.2556 33.8244 18.3408 32.8996L14.2783 28.7927C12.7971 27.2954 12.5422 24.8891 13.8266 23.2171C15.3784 21.197 18.2677 21.0618 19.9984 22.8115C21.7292 21.0619 24.6184 21.197 26.1703 23.2171ZM38.9239 9.99512L36.4298 12.5527C36.3023 12.6837 36.1563 12.787 36.0031 12.877V51.0938C36.0031 53.8506 33.7599 56.0938 31.0031 56.0938H9.00305C6.24618 56.0938 4.00305 53.8506 4.00305 51.0938V48.3823C3.84593 48.2911 3.69605 48.186 3.56555 48.0518L1.07243 45.4951C-0.194197 44.1954 -0.335822 42.1982 0.744303 40.8476C1.34593 40.0966 2.23355 39.6386 3.1798 39.5928C3.45768 39.5774 3.73355 39.6059 4.00305 39.6619V5.09375C4.00305 2.33688 6.24618 0.09375 9.00305 0.09375H31.0031C33.4458 0.09375 35.4772 1.85725 35.9103 4.1765C36.2032 4.108 36.5067 4.077 36.8166 4.09288C37.7628 4.13875 38.6506 4.59675 39.2521 5.34775C40.3311 6.69738 40.1914 8.69537 38.9239 9.99512ZM16.0029 51.0891H24.0029C25.1076 51.0891 26.0029 50.1936 26.0029 49.0891C26.0029 47.9846 25.1076 47.0891 24.0029 47.0891H16.0029C14.8984 47.0891 14.0029 47.9846 14.0029 49.0891C14.0029 50.1936 14.8984 51.0891 16.0029 51.0891ZM34.0029 43.0891V12.8822C33.8458 12.7911 33.6959 12.686 33.5654 12.5518L31.0723 9.99512C30.2869 9.18925 29.9363 8.11538 30.0389 7.09375H6.00293V39.6598C6.26718 39.6058 6.53843 39.5778 6.81643 39.5928C7.76268 39.6386 8.65043 40.0966 9.25193 40.8476C9.76956 41.495 10.0001 42.2919 9.96655 43.089L34.0029 43.0891ZM4.99805 46.6562L7.49218 44.0986C8.04693 43.5303 8.1338 42.6514 7.69043 42.0976C7.4433 41.789 7.09868 41.6094 6.7188 41.5908C6.34493 41.5724 5.99055 41.7133 5.72093 41.9853C5.53905 42.1743 5.28618 42.2939 5.00293 42.2939C5.00118 42.2939 4.9998 42.2929 4.99805 42.2929C4.99468 42.2929 4.99155 42.2909 4.98818 42.2909C4.85543 42.2888 4.72818 42.2638 4.61293 42.2149C4.53493 42.1824 4.47118 42.125 4.40343 42.0738C4.36855 42.0469 4.32568 42.0308 4.29468 41.9996C4.29105 41.996 4.2858 41.9949 4.2823 41.9913C4.02743 41.7305 3.6963 41.5889 3.3428 41.5889C3.3213 41.5889 3.2998 41.5899 3.27743 41.5909C2.89855 41.6094 2.5528 41.7891 2.3058 42.0978C1.86343 42.6515 1.9503 43.5304 2.50405 44.0988L4.99805 46.6562ZM37.6904 6.59775C37.4433 6.28912 37.0987 6.1095 36.7188 6.09088C36.3468 6.07638 35.9906 6.2135 35.7209 6.4855C35.5391 6.67438 35.2862 6.794 35.0029 6.794C35.0012 6.794 34.9998 6.793 34.9981 6.793C34.9947 6.793 34.9916 6.791 34.9882 6.791C34.8554 6.78888 34.7282 6.76388 34.6129 6.715C34.5349 6.6825 34.4712 6.62512 34.4034 6.57387C34.3686 6.547 34.3257 6.53088 34.2947 6.49975C34.2911 6.49613 34.2858 6.495 34.2823 6.49138C34.0274 6.23063 33.6963 6.089 33.3428 6.089C33.3213 6.089 33.2998 6.09 33.2774 6.091C32.8986 6.1095 32.5528 6.28925 32.3058 6.59788C31.8634 7.15163 31.9503 8.0305 32.5041 8.59888L34.9982 11.1565L37.4923 8.59888C38.0469 8.03038 38.1338 7.15138 37.6904 6.59775Z" fill="#3C7939"/>
</svg>
