<svg width="56" height="57" viewBox="0 0 56 57" fill="none" xmlns="http://www.w3.org/2000/svg">
<path fill-rule="evenodd" clip-rule="evenodd" d="M2.33203 28.0964C2.33203 13.9211 13.8234 2.42969 27.9987 2.42969C42.1739 2.42969 53.6654 13.9211 53.6654 28.0964C53.6654 42.2716 42.1739 53.763 27.9987 53.763C13.8234 53.763 2.33203 42.2716 2.33203 28.0964ZM42.9689 22.7391C43.8782 21.8259 43.8749 20.3486 42.9617 19.4393L41.3083 17.793C40.395 16.8837 38.9178 16.8869 38.0085 17.8001L24.5414 31.3252L16.7922 23.6838C15.8747 22.7791 14.3973 22.7894 13.4925 23.7071L11.8542 25.3685C10.9494 26.2859 10.9597 27.7634 11.8773 28.6683L22.9333 39.5703C23.8477 40.4721 25.3189 40.4654 26.2251 39.5554L42.9689 22.7391Z" fill="#3C7939"/>
</svg>
