<svg width="168" height="57" viewBox="0 0 168 57" fill="none" xmlns="http://www.w3.org/2000/svg">
<rect x="0.65" y="1.19688" width="166.7" height="54.7" rx="8.45" fill="black"/>
<rect x="0.65" y="1.19688" width="166.7" height="54.7" rx="8.45" stroke="#A6A6A6" stroke-width="1.3"/>
<path d="M34.6772 28.9703C34.7075 26.6169 35.9714 24.3901 37.9764 23.1574C36.7115 21.351 34.5929 20.2056 32.3887 20.1367C30.0378 19.8899 27.7587 21.5434 26.5607 21.5434C25.3395 21.5434 23.495 20.1612 21.5088 20.202C18.9198 20.2857 16.5063 21.7576 15.2467 24.0211C12.5391 28.7088 14.5587 35.5983 17.1524 39.3876C18.45 41.2431 19.9666 43.3157 21.951 43.2422C23.8929 43.1617 24.6182 42.0039 26.9622 42.0039C29.2845 42.0039 29.9649 43.2422 31.9896 43.1955C34.0733 43.1616 35.3862 41.3317 36.6383 39.4587C37.5707 38.1366 38.2881 36.6754 38.7641 35.1292C36.3153 34.0934 34.68 31.6291 34.6772 28.9703Z" fill="white"/>
<path d="M30.8528 17.6447C31.989 16.2808 32.5487 14.5277 32.4132 12.7578C30.6774 12.9401 29.074 13.7697 27.9226 15.0813C26.7966 16.3627 26.2106 18.0849 26.3214 19.7872C28.0578 19.8051 29.7648 18.998 30.8528 17.6447Z" fill="white"/>
<path d="M114.137 27.4274V30.6348H112.127V32.7382H114.137V39.8852C114.137 42.3256 115.241 43.3018 118.019 43.3018C118.507 43.3018 118.972 43.2437 119.378 43.174V41.0938C119.03 41.1287 118.809 41.1519 118.426 41.1519C117.182 41.1519 116.636 40.5709 116.636 39.246V32.7382H119.378V30.6348H116.636V27.4274H114.137Z" fill="white"/>
<path d="M126.454 43.4761C130.149 43.4761 132.415 41.0008 132.415 36.8986C132.415 32.8196 130.138 30.3327 126.454 30.3327C122.758 30.3327 120.481 32.8196 120.481 36.8986C120.481 41.0008 122.747 43.4761 126.454 43.4761ZM126.454 41.2565C124.281 41.2565 123.06 39.6644 123.06 36.8986C123.06 34.156 124.281 32.5523 126.454 32.5523C128.615 32.5523 129.847 34.156 129.847 36.8986C129.847 39.6528 128.615 41.2565 126.454 41.2565Z" fill="white"/>
<path d="M134.354 43.2321H136.853V35.7597C136.853 33.9817 138.189 32.7847 140.084 32.7847C140.525 32.7847 141.269 32.8661 141.478 32.9358V30.4721C141.211 30.4024 140.734 30.3675 140.362 30.3675C138.712 30.3675 137.306 31.274 136.946 32.5174H136.76V30.5767H134.354V43.2321Z" fill="white"/>
<path d="M147.682 32.4593C149.53 32.4593 150.738 33.7493 150.796 35.7365H144.405C144.544 33.7609 145.834 32.4593 147.682 32.4593ZM150.785 39.8155C150.32 40.8033 149.286 41.3495 147.775 41.3495C145.776 41.3495 144.486 39.9433 144.405 37.7237V37.5842H153.341V36.7126C153.341 32.7382 151.215 30.3327 147.693 30.3327C144.126 30.3327 141.86 32.9009 141.86 36.9451C141.86 40.9892 144.079 43.4761 147.705 43.4761C150.599 43.4761 152.621 42.0816 153.19 39.8155H150.785Z" fill="white"/>
<path d="M97.7523 38.5587C97.945 41.6662 100.535 43.6537 104.389 43.6537C108.508 43.6537 111.086 41.5699 111.086 38.2455C111.086 35.6317 109.617 34.1863 106.051 33.3552L104.136 32.8855C101.872 32.3555 100.956 31.6449 100.956 30.4042C100.956 28.8384 102.378 27.8146 104.51 27.8146C106.533 27.8146 107.93 28.8143 108.183 30.4163H110.809C110.652 27.4894 108.075 25.4297 104.546 25.4297C100.751 25.4297 98.2221 27.4894 98.2221 30.5849C98.2221 33.1384 99.6554 34.6561 102.799 35.3908L105.039 35.9329C107.34 36.4749 108.352 37.2698 108.352 38.5948C108.352 40.1365 106.762 41.2567 104.594 41.2567C102.269 41.2567 100.655 40.2088 100.426 38.5587H97.7523Z" fill="white"/>
<path d="M71.87 30.3675C70.1501 30.3675 68.6626 31.2275 67.8956 32.6685H67.7097V30.5767H65.3041V47.4389H67.8027V41.3146H68.0002C68.6626 42.651 70.092 43.4413 71.8933 43.4413C75.0891 43.4413 77.1228 40.9195 77.1228 36.8986C77.1228 32.8777 75.0891 30.3675 71.87 30.3675ZM71.1612 41.1984C69.0694 41.1984 67.7562 39.5482 67.7562 36.9102C67.7562 34.2606 69.0694 32.6104 71.1728 32.6104C73.2878 32.6104 74.5545 34.2257 74.5545 36.8986C74.5545 39.5831 73.2878 41.1984 71.1612 41.1984Z" fill="white"/>
<path d="M85.8656 30.3675C84.1456 30.3675 82.6581 31.2275 81.8911 32.6685H81.7052V30.5767H79.2996V47.4389H81.7982V41.3146H81.9957C82.6581 42.651 84.0875 43.4413 85.8888 43.4413C89.0846 43.4413 91.1183 40.9195 91.1183 36.8986C91.1183 32.8777 89.0846 30.3675 85.8656 30.3675ZM85.1567 41.1984C83.0649 41.1984 81.7517 39.5482 81.7517 36.9102C81.7517 34.2606 83.0649 32.6104 85.1683 32.6104C87.2833 32.6104 88.55 34.2257 88.55 36.8986C88.55 39.5831 87.2833 41.1984 85.1567 41.1984Z" fill="white"/>
<path d="M60.8213 43.2321H63.688L57.4126 25.8513H54.5098L48.2344 43.2321H51.0047L52.6067 38.6189H59.2314L60.8213 43.2321ZM55.8227 29.007H56.0274L58.5448 36.3544H53.2932L55.8227 29.007Z" fill="white"/>
<path d="M49.9102 12.7407V21.1253H52.9375C55.436 21.1253 56.8828 19.5855 56.8828 16.9068C56.8828 14.2688 55.4244 12.7407 52.9375 12.7407H49.9102ZM51.2117 13.926H52.7922C54.5295 13.926 55.558 15.03 55.558 16.9243C55.558 18.8476 54.547 19.9399 52.7922 19.9399H51.2117V13.926Z" fill="white"/>
<path d="M61.3139 21.2473C63.1617 21.2473 64.2947 20.0097 64.2947 17.9585C64.2947 15.919 63.1559 14.6756 61.3139 14.6756C59.4662 14.6756 58.3273 15.919 58.3273 17.9585C58.3273 20.0097 59.4604 21.2473 61.3139 21.2473ZM61.3139 20.1375C60.2274 20.1375 59.6173 19.3415 59.6173 17.9585C59.6173 16.5873 60.2274 15.7854 61.3139 15.7854C62.3947 15.7854 63.0106 16.5873 63.0106 17.9585C63.0106 19.3356 62.3947 20.1375 61.3139 20.1375Z" fill="white"/>
<path d="M73.9437 14.7976H72.6945L71.5672 19.6262H71.4684L70.1669 14.7976H68.9699L67.6684 19.6262H67.5754L66.4423 14.7976H65.1756L66.9188 21.1253H68.2029L69.5045 16.4652H69.6033L70.9106 21.1253H72.2064L73.9437 14.7976Z" fill="white"/>
<path d="M75.3824 21.1253H76.6317V17.424C76.6317 16.4362 77.2186 15.8203 78.1424 15.8203C79.0663 15.8203 79.5079 16.3258 79.5079 17.3426V21.1253H80.7572V17.0289C80.7572 15.5239 79.9786 14.6756 78.5666 14.6756C77.6137 14.6756 76.9861 15.0998 76.6782 15.8028H76.5852V14.7976H75.3824V21.1253Z" fill="white"/>
<path d="M82.7246 21.1253H83.9739V12.3281H82.7246V21.1253Z" fill="white"/>
<path d="M88.6723 21.2473C90.5201 21.2473 91.6531 20.0097 91.6531 17.9585C91.6531 15.919 90.5143 14.6756 88.6723 14.6756C86.8246 14.6756 85.6857 15.919 85.6857 17.9585C85.6857 20.0097 86.8188 21.2473 88.6723 21.2473ZM88.6723 20.1375C87.5857 20.1375 86.9756 19.3415 86.9756 17.9585C86.9756 16.5873 87.5857 15.7854 88.6723 15.7854C89.7531 15.7854 90.369 16.5873 90.369 17.9585C90.369 19.3356 89.7531 20.1375 88.6723 20.1375Z" fill="white"/>
<path d="M95.3754 20.1782C94.6955 20.1782 94.2016 19.847 94.2016 19.2775C94.2016 18.7197 94.5967 18.4234 95.4683 18.3653L97.0139 18.2665V18.7953C97.0139 19.5797 96.3167 20.1782 95.3754 20.1782ZM95.0558 21.2299C95.8867 21.2299 96.5781 20.8696 96.9558 20.2363H97.0546V21.1253H98.2574V16.8022C98.2574 15.4658 97.3626 14.6756 95.7763 14.6756C94.3411 14.6756 93.3184 15.3729 93.1906 16.4594H94.3992C94.5386 16.012 95.0209 15.7563 95.7182 15.7563C96.5723 15.7563 97.0139 16.134 97.0139 16.8022V17.3484L95.2998 17.4472C93.7949 17.5402 92.9466 18.1968 92.9466 19.3356C92.9466 20.4919 93.8356 21.2299 95.0558 21.2299Z" fill="white"/>
<path d="M102.497 21.2299C103.368 21.2299 104.106 20.8173 104.484 20.1259H104.583V21.1253H105.78V12.3281H104.53V15.8028H104.437C104.095 15.1056 103.363 14.693 102.497 14.693C100.899 14.693 99.8704 15.9597 99.8704 17.9585C99.8704 19.9632 100.887 21.2299 102.497 21.2299ZM102.851 15.8145C103.897 15.8145 104.554 16.6454 104.554 17.9644C104.554 19.2892 103.903 20.1084 102.851 20.1084C101.794 20.1084 101.16 19.3008 101.16 17.9585C101.16 16.6279 101.8 15.8145 102.851 15.8145Z" fill="white"/>
<path d="M113.881 21.2473C115.729 21.2473 116.862 20.0097 116.862 17.9585C116.862 15.919 115.723 14.6756 113.881 14.6756C112.033 14.6756 110.894 15.919 110.894 17.9585C110.894 20.0097 112.027 21.2473 113.881 21.2473ZM113.881 20.1375C112.794 20.1375 112.184 19.3415 112.184 17.9585C112.184 16.5873 112.794 15.7854 113.881 15.7854C114.962 15.7854 115.577 16.5873 115.577 17.9585C115.577 19.3356 114.962 20.1375 113.881 20.1375Z" fill="white"/>
<path d="M118.515 21.1253H119.765V17.424C119.765 16.4362 120.351 15.8203 121.275 15.8203C122.199 15.8203 122.641 16.3258 122.641 17.3426V21.1253H123.89V17.0289C123.89 15.5239 123.111 14.6756 121.699 14.6756C120.747 14.6756 120.119 15.0998 119.811 15.8028H119.718V14.7976H118.515V21.1253Z" fill="white"/>
<path d="M129.644 13.2229V14.8267H128.638V15.8784H129.644V19.4519C129.644 20.6721 130.196 21.1602 131.584 21.1602C131.828 21.1602 132.061 21.1311 132.264 21.0962V20.0562C132.09 20.0736 131.979 20.0852 131.788 20.0852C131.166 20.0852 130.893 19.7947 130.893 19.1323V15.8784H132.264V14.8267H130.893V13.2229H129.644Z" fill="white"/>
<path d="M133.941 21.1253H135.19V17.4298C135.19 16.471 135.76 15.8261 136.782 15.8261C137.666 15.8261 138.136 16.3374 138.136 17.3484V21.1253H139.386V17.0405C139.386 15.5355 138.555 14.6814 137.207 14.6814C136.254 14.6814 135.586 15.1056 135.278 15.8145H135.179V12.3281H133.941V21.1253Z" fill="white"/>
<path d="M143.892 15.7389C144.816 15.7389 145.42 16.3839 145.449 17.3775H142.254C142.323 16.3897 142.968 15.7389 143.892 15.7389ZM145.444 19.417C145.211 19.9109 144.694 20.184 143.939 20.184C142.939 20.184 142.294 19.4809 142.254 18.3711V18.3014H146.722V17.8656C146.722 15.8784 145.659 14.6756 143.898 14.6756C142.114 14.6756 140.981 15.9597 140.981 17.9818C140.981 20.0039 142.091 21.2473 143.904 21.2473C145.351 21.2473 146.362 20.55 146.646 19.417H145.444Z" fill="white"/>
</svg>
