<svg width="168" height="57" viewBox="0 0 189 57" fill="none" xmlns="http://www.w3.org/2000/svg">
<rect x="0.65" y="1.19688" width="187.7" height="54.7" rx="5.85" fill="black"/>
<rect x="0.65" y="1.19688" width="187.7" height="54.7" rx="5.85" stroke="#A6A6A6" stroke-width="1.3"/>
<g filter="url(#filter0_ii_4850_167877)">
<path d="M14.6091 11.1022C14.2017 11.5334 13.9609 12.2026 13.9609 13.0692V44.0316C13.9609 44.8996 14.2017 45.5674 14.6091 45.9986L14.7127 46.0994L32.0573 28.7548V28.5504V28.346L14.7127 11L14.6091 11.1022Z" fill="url(#paint0_linear_4850_167877)"/>
<path d="M37.8392 34.5367L32.0586 28.7533V28.5489V28.3445L37.8406 22.5625L37.9708 22.6367L44.821 26.5287C46.7768 27.6403 46.7768 29.4589 44.821 30.5719L37.9708 34.4639L37.8392 34.5367Z" fill="url(#paint1_linear_4850_167877)"/>
<g filter="url(#filter1_i_4850_167877)">
<path d="M37.9698 34.4683L32.0562 28.5547L14.6094 46.0029C15.2534 46.6861 16.3188 46.7701 17.5186 46.0897L37.9698 34.4683Z" fill="url(#paint2_linear_4850_167877)"/>
</g>
<path d="M37.9698 22.6374L17.5186 11.0174C16.3188 10.3356 15.2534 10.421 14.6094 11.1042L32.0576 28.5524L37.9698 22.6374Z" fill="url(#paint3_linear_4850_167877)"/>
</g>
<path d="M95.3886 30.9997C92.0958 30.9997 89.412 33.5043 89.412 36.9539C89.412 40.3825 92.0958 42.9081 95.3886 42.9081C98.6828 42.9081 101.367 40.3825 101.367 36.9539C101.365 33.5043 98.6814 30.9997 95.3886 30.9997ZM95.3886 40.5645C93.584 40.5645 92.0286 39.0763 92.0286 36.9553C92.0286 34.8119 93.5854 33.3461 95.3886 33.3461C97.1932 33.3461 98.7486 34.8119 98.7486 36.9553C98.7486 39.0749 97.1932 40.5645 95.3886 40.5645ZM82.349 30.9997C79.0562 30.9997 76.3724 33.5043 76.3724 36.9539C76.3724 40.3825 79.0562 42.9081 82.349 42.9081C85.6432 42.9081 88.327 40.3825 88.327 36.9539C88.327 33.5043 85.6432 30.9997 82.349 30.9997ZM82.349 40.5645C80.5444 40.5645 78.989 39.0763 78.989 36.9553C78.989 34.8119 80.5458 33.3461 82.349 33.3461C84.1536 33.3461 85.709 34.8119 85.709 36.9553C85.7104 39.0749 84.1536 40.5645 82.349 40.5645ZM66.8398 32.8281V35.3537H72.885C72.7044 36.7747 72.2312 37.8121 71.5088 38.5331C70.6296 39.4123 69.2534 40.3825 66.8398 40.3825C63.1186 40.3825 60.2094 37.3823 60.2094 33.6611C60.2094 29.9399 63.1186 26.9397 66.8398 26.9397C68.8474 26.9397 70.3132 27.7293 71.3954 28.7443L73.1776 26.9621C71.6656 25.5187 69.6594 24.4141 66.8398 24.4141C61.7424 24.4141 57.457 28.5637 57.457 33.6611C57.457 38.7585 61.7424 42.9081 66.8398 42.9081C69.5908 42.9081 71.667 42.0051 73.2896 40.3139C74.9584 38.6451 75.4778 36.2987 75.4778 34.4045C75.4778 33.8193 75.433 33.2775 75.342 32.8267H66.8398V32.8281ZM130.271 34.7895C129.775 33.4595 128.263 30.9997 125.174 30.9997C122.106 30.9997 119.557 33.4133 119.557 36.9539C119.557 40.2915 122.084 42.9081 125.466 42.9081C128.195 42.9081 129.774 41.2393 130.429 40.2691L128.399 38.9153C127.723 39.9079 126.798 40.5617 125.466 40.5617C124.136 40.5617 123.188 39.9527 122.579 38.7571L130.541 35.4643L130.271 34.7895ZM122.151 36.7747C122.084 34.4731 123.933 33.3013 125.265 33.3013C126.302 33.3013 127.181 33.8207 127.475 34.5641L122.151 36.7747ZM115.679 42.5483H118.294V25.0469H115.679V42.5483ZM111.392 32.3311H111.302C110.716 31.6311 109.587 30.9997 108.168 30.9997C105.19 30.9997 102.461 33.6163 102.461 36.9777C102.461 40.3153 105.19 42.9095 108.168 42.9095C109.589 42.9095 110.716 42.2781 111.302 41.5571H111.392V42.4139C111.392 44.6917 110.174 45.9097 108.213 45.9097C106.611 45.9097 105.618 44.7603 105.212 43.7901L102.935 44.7379C103.588 46.3157 105.324 48.2561 108.213 48.2561C111.28 48.2561 113.874 46.4515 113.874 42.0527V31.3623H111.393V32.3311H111.392ZM108.393 40.5645C106.589 40.5645 105.078 39.0525 105.078 36.9777C105.078 34.8791 106.589 33.3461 108.393 33.3461C110.174 33.3461 111.573 34.8791 111.573 36.9777C111.573 39.0525 110.174 40.5645 108.393 40.5645ZM142.527 25.0469H136.267V42.5483H138.878V35.9179H142.525C145.42 35.9179 148.268 33.8221 148.268 30.4831C148.268 27.1441 145.422 25.0469 142.527 25.0469ZM142.594 33.4819H138.878V27.4829H142.594C144.547 27.4829 145.656 29.0999 145.656 30.4831C145.656 31.8383 144.547 33.4819 142.594 33.4819ZM158.739 30.9689C156.847 30.9689 154.889 31.8019 154.078 33.6485L156.396 34.6159C156.892 33.6485 157.816 33.3321 158.783 33.3321C160.134 33.3321 161.508 34.1427 161.53 35.5833V35.7639C161.057 35.4937 160.043 35.0891 158.806 35.0891C156.307 35.0891 153.762 36.4625 153.762 39.0287C153.762 41.3709 155.811 42.8787 158.107 42.8787C159.863 42.8787 160.832 42.0905 161.439 41.1665H161.529V42.5175H164.052V35.8073C164.053 32.7021 161.732 30.9689 158.739 30.9689ZM158.422 40.5603C157.568 40.5603 156.374 40.1319 156.374 39.0735C156.374 37.7225 157.861 37.2045 159.145 37.2045C160.291 37.2045 160.833 37.4523 161.53 37.7897C161.327 39.4123 159.931 40.5603 158.422 40.5603ZM173.238 31.3511L170.244 38.9391H170.154L167.046 31.3511H164.232L168.893 41.9561L166.236 47.8557H168.96L176.143 31.3511H173.238ZM149.71 42.5483H152.321V25.0469H149.71V42.5483Z" fill="white"/>
<path d="M66.3869 14.8854C66.3869 16.0586 66.0397 16.9924 65.3439 17.6896C64.5543 18.5184 63.5239 18.9328 62.2583 18.9328C61.0459 18.9328 60.0141 18.5128 59.1671 17.6728C58.3187 16.8314 57.8945 15.7898 57.8945 14.5466C57.8945 13.302 58.3187 12.2604 59.1671 11.4204C60.0141 10.579 61.0459 10.159 62.2583 10.159C62.8603 10.159 63.4357 10.2766 63.9817 10.5104C64.5291 10.7456 64.9673 11.0578 65.2949 11.4484L64.5571 12.1876C64.0013 11.5226 63.2355 11.1908 62.2569 11.1908C61.3721 11.1908 60.6077 11.5016 59.9623 12.1232C59.3169 12.7448 58.9949 13.5526 58.9949 14.5452C58.9949 15.5378 59.3169 16.3456 59.9623 16.9672C60.6077 17.5888 61.3721 17.8996 62.2569 17.8996C63.1949 17.8996 63.9775 17.5874 64.6033 16.9616C65.0093 16.5542 65.2445 15.9872 65.3075 15.2606H62.2569V14.2512H66.3267C66.3687 14.471 66.3869 14.6824 66.3869 14.8854Z" fill="white"/>
<path d="M72.8411 11.3771H69.0163V14.0399H72.4659V15.0493H69.0163V17.7121H72.8411V18.7453H67.9369V10.3453H72.8411V11.3771Z" fill="white"/>
<path d="M77.3923 18.7453H76.3129V11.3771H73.9665V10.3453H79.7387V11.3771H77.3923V18.7453Z" fill="white"/>
<path d="M83.9148 18.7453V10.3453H84.9942V18.7453H83.9148Z" fill="white"/>
<path d="M89.7811 18.7453H88.7017V11.3771H86.3553V10.3453H92.1275V11.3771H89.7811V18.7453Z" fill="white"/>
<path d="M103.054 17.6603C102.228 18.5086 101.202 18.9329 99.9741 18.9329C98.7463 18.9329 97.7202 18.5086 96.8956 17.6603C96.0696 16.8119 95.6579 15.773 95.6579 14.5452C95.6579 13.3175 96.0696 12.2786 96.8956 11.4302C97.7202 10.5818 98.7463 10.1562 99.9741 10.1562C101.195 10.1562 102.22 10.5832 103.049 11.4358C103.877 12.2884 104.292 13.3245 104.292 14.5452C104.292 15.773 103.879 16.8119 103.054 17.6603ZM97.6922 16.956C98.3138 17.586 99.0739 17.8996 99.9741 17.8996C100.874 17.8996 101.636 17.5846 102.256 16.956C102.878 16.326 103.19 15.5224 103.19 14.5452C103.19 13.568 102.878 12.7644 102.256 12.1344C101.636 11.5045 100.874 11.1909 99.9741 11.1909C99.0739 11.1909 98.3138 11.5058 97.6922 12.1344C97.072 12.7644 96.7598 13.568 96.7598 14.5452C96.7598 15.5224 97.072 16.326 97.6922 16.956Z" fill="white"/>
<path d="M105.807 18.7453V10.3453H107.12L111.202 16.8791H111.248L111.202 15.2607V10.3453H112.282V18.7453H111.155L106.883 11.8937H106.837L106.883 13.5121V18.7453H105.807Z" fill="white"/>
<path d="M66.3869 14.8854C66.3869 16.0586 66.0397 16.9924 65.3439 17.6896C64.5543 18.5184 63.5239 18.9328 62.2583 18.9328C61.0459 18.9328 60.0141 18.5128 59.1671 17.6728C58.3187 16.8314 57.8945 15.7898 57.8945 14.5466C57.8945 13.302 58.3187 12.2604 59.1671 11.4204C60.0141 10.579 61.0459 10.159 62.2583 10.159C62.8603 10.159 63.4357 10.2766 63.9817 10.5104C64.5291 10.7456 64.9673 11.0578 65.2949 11.4484L64.5571 12.1876C64.0013 11.5226 63.2355 11.1908 62.2569 11.1908C61.3721 11.1908 60.6077 11.5016 59.9623 12.1232C59.3169 12.7448 58.9949 13.5526 58.9949 14.5452C58.9949 15.5378 59.3169 16.3456 59.9623 16.9672C60.6077 17.5888 61.3721 17.8996 62.2569 17.8996C63.1949 17.8996 63.9775 17.5874 64.6033 16.9616C65.0093 16.5542 65.2445 15.9872 65.3075 15.2606H62.2569V14.2512H66.3267C66.3687 14.471 66.3869 14.6824 66.3869 14.8854Z" stroke="white" stroke-width="0.26" stroke-miterlimit="10"/>
<path d="M72.8411 11.3771H69.0163V14.0399H72.4659V15.0493H69.0163V17.7121H72.8411V18.7453H67.9369V10.3453H72.8411V11.3771Z" stroke="white" stroke-width="0.26" stroke-miterlimit="10"/>
<path d="M77.3923 18.7453H76.3129V11.3771H73.9665V10.3453H79.7387V11.3771H77.3923V18.7453Z" stroke="white" stroke-width="0.26" stroke-miterlimit="10"/>
<path d="M83.9148 18.7453V10.3453H84.9942V18.7453H83.9148Z" stroke="white" stroke-width="0.26" stroke-miterlimit="10"/>
<path d="M89.7811 18.7453H88.7017V11.3771H86.3553V10.3453H92.1275V11.3771H89.7811V18.7453Z" stroke="white" stroke-width="0.26" stroke-miterlimit="10"/>
<path d="M103.054 17.6603C102.228 18.5086 101.202 18.9329 99.9741 18.9329C98.7463 18.9329 97.7202 18.5086 96.8956 17.6603C96.0696 16.8119 95.6579 15.773 95.6579 14.5452C95.6579 13.3175 96.0696 12.2786 96.8956 11.4302C97.7202 10.5818 98.7463 10.1562 99.9741 10.1562C101.195 10.1562 102.22 10.5832 103.049 11.4358C103.877 12.2884 104.292 13.3245 104.292 14.5452C104.292 15.773 103.879 16.8119 103.054 17.6603ZM97.6922 16.956C98.3138 17.586 99.0739 17.8996 99.9741 17.8996C100.874 17.8996 101.636 17.5846 102.256 16.956C102.878 16.326 103.19 15.5224 103.19 14.5452C103.19 13.568 102.878 12.7644 102.256 12.1344C101.636 11.5045 100.874 11.1909 99.9741 11.1909C99.0739 11.1909 98.3138 11.5058 97.6922 12.1344C97.072 12.7644 96.7598 13.568 96.7598 14.5452C96.7598 15.5224 97.072 16.326 97.6922 16.956Z" stroke="white" stroke-width="0.26" stroke-miterlimit="10"/>
<path d="M105.807 18.7453V10.3453H107.12L111.202 16.8791H111.248L111.202 15.2607V10.3453H112.282V18.7453H111.155L106.883 11.8937H106.837L106.883 13.5121V18.7453H105.807Z" stroke="white" stroke-width="0.26" stroke-miterlimit="10"/>
<defs>
<filter id="filter0_ii_4850_167877" x="13.9609" y="10.5469" width="32.3281" height="36.0156" filterUnits="userSpaceOnUse" color-interpolation-filters="sRGB">
<feFlood flood-opacity="0" result="BackgroundImageFix"/>
<feBlend mode="normal" in="SourceGraphic" in2="BackgroundImageFix" result="shape"/>
<feColorMatrix in="SourceAlpha" type="matrix" values="0 0 0 0 0 0 0 0 0 0 0 0 0 0 0 0 0 0 127 0" result="hardAlpha"/>
<feOffset dy="-0.195"/>
<feComposite in2="hardAlpha" operator="arithmetic" k2="-1" k3="1"/>
<feColorMatrix type="matrix" values="0 0 0 0 0 0 0 0 0 0 0 0 0 0 0 0 0 0 0.12 0"/>
<feBlend mode="normal" in2="shape" result="effect1_innerShadow_4850_167877"/>
<feColorMatrix in="SourceAlpha" type="matrix" values="0 0 0 0 0 0 0 0 0 0 0 0 0 0 0 0 0 0 127 0" result="hardAlpha"/>
<feOffset dy="0.195"/>
<feComposite in2="hardAlpha" operator="arithmetic" k2="-1" k3="1"/>
<feColorMatrix type="matrix" values="0 0 0 0 1 0 0 0 0 1 0 0 0 0 1 0 0 0 0.25 0"/>
<feBlend mode="normal" in2="effect1_innerShadow_4850_167877" result="effect2_innerShadow_4850_167877"/>
</filter>
<filter id="filter1_i_4850_167877" x="14.6094" y="28.5547" width="23.3594" height="18.0078" filterUnits="userSpaceOnUse" color-interpolation-filters="sRGB">
<feFlood flood-opacity="0" result="BackgroundImageFix"/>
<feBlend mode="normal" in="SourceGraphic" in2="BackgroundImageFix" result="shape"/>
<feColorMatrix in="SourceAlpha" type="matrix" values="0 0 0 0 0 0 0 0 0 0 0 0 0 0 0 0 0 0 127 0" result="hardAlpha"/>
<feOffset dy="-0.195"/>
<feComposite in2="hardAlpha" operator="arithmetic" k2="-1" k3="1"/>
<feColorMatrix type="matrix" values="0 0 0 0 0 0 0 0 0 0 0 0 0 0 0 0 0 0 0.08 0"/>
<feBlend mode="normal" in2="shape" result="effect1_innerShadow_4850_167877"/>
</filter>
<linearGradient id="paint0_linear_4850_167877" x1="30.5199" y1="12.7416" x2="7.02506" y2="36.2364" gradientUnits="userSpaceOnUse">
<stop stop-color="#00A0FF"/>
<stop offset="0.0066" stop-color="#00A1FF"/>
<stop offset="0.2601" stop-color="#00BEFF"/>
<stop offset="0.5122" stop-color="#00D2FF"/>
<stop offset="0.7604" stop-color="#00DFFF"/>
<stop offset="1" stop-color="#00E3FF"/>
</linearGradient>
<linearGradient id="paint1_linear_4850_167877" x1="47.3669" y1="28.5489" x2="13.4926" y2="28.5489" gradientUnits="userSpaceOnUse">
<stop stop-color="#FFE000"/>
<stop offset="0.4087" stop-color="#FFBD00"/>
<stop offset="0.7754" stop-color="#FFA500"/>
<stop offset="1" stop-color="#FF9C00"/>
</linearGradient>
<linearGradient id="paint2_linear_4850_167877" x1="34.7583" y1="31.7661" x2="2.89643" y2="63.6281" gradientUnits="userSpaceOnUse">
<stop stop-color="#FF3A44"/>
<stop offset="1" stop-color="#C31162"/>
</linearGradient>
<linearGradient id="paint3_linear_4850_167877" x1="10.2153" y1="0.7971" x2="24.4426" y2="15.0243" gradientUnits="userSpaceOnUse">
<stop stop-color="#32A071"/>
<stop offset="0.0685" stop-color="#2DA771"/>
<stop offset="0.4762" stop-color="#15CF74"/>
<stop offset="0.8009" stop-color="#06E775"/>
<stop offset="1" stop-color="#00F076"/>
</linearGradient>
</defs>
</svg>
