<svg width="269" height="270" viewBox="0 0 269 270" fill="none" xmlns="http://www.w3.org/2000/svg">
<g clip-path="url(#clip0_4851_169248)">
<path d="M222.591 230.323C213.041 223.092 180.292 186.718 188.728 171.335C193.478 162.672 203.698 168.135 204.228 176.762C204.683 184.165 197.466 198.041 188.397 196.584C168.79 193.434 154.585 177.805 142 163.888C123.627 143.57 109.808 113.987 108.44 86.2589C107.908 75.4871 107.946 59.0541 129.704 70.2128C164.206 87.9075 148.698 111.608 122.536 127.783C111.574 134.561 94.7598 133.52 83.1989 129.168C70.4283 124.361 57.0522 105.452 61.715 91.4441C65.5495 79.9241 74.8161 90.3595 73.7249 98.7127C72.1247 110.961 59.0037 113.412 49.5427 108.494C34.0591 100.444 26.5694 85.1997 22.2876 68.97C21.0242 64.181 19.6749 52.4926 21.1001 47.5814C22.3963 43.1147 21.1944 45.68 20.321 48.6902C19.5027 51.5102 16.4319 53.1304 14.9936 55.7535C14.4877 56.6759 18.8073 51.6064 19.7391 49.9071C24.1705 41.826 31.4087 54.3601 35.4517 57.7553" stroke="#2853A6" stroke-width="4.65" stroke-linecap="round"/>
</g>
<defs>
<clipPath id="clip0_4851_169248">
<rect width="286.75" height="93" fill="white" transform="translate(203.125 269.234) rotate(-135)"/>
</clipPath>
</defs>
</svg>
