<svg width="19" height="19" viewBox="0 0 19 19" fill="none" xmlns="http://www.w3.org/2000/svg">
<path d="M17.1562 11.3195L16.8395 15.2779C16.7208 16.4891 16.6258 17.4154 14.4803 17.4154H4.52117C2.37575 17.4154 2.28075 16.4891 2.162 15.2779L1.84533 11.3195C1.782 10.6624 1.98783 10.0529 2.35992 9.58578C2.36783 9.57786 2.36783 9.57786 2.37575 9.56995C2.81117 9.03953 3.46825 8.70703 4.2045 8.70703H14.797C15.5333 8.70703 16.1824 9.03953 16.6099 9.55411C16.6178 9.56203 16.6258 9.56995 16.6258 9.57786C17.0137 10.0449 17.2274 10.6545 17.1562 11.3195Z" stroke="white" stroke-width="1.5" stroke-miterlimit="10"/>
<path d="M2.77148 9.04714V4.97005C2.77148 2.27839 3.4444 1.60547 6.13607 1.60547H7.14149C8.1469 1.60547 8.37649 1.9063 8.75649 2.41297L9.7619 3.7588C10.0152 4.0913 10.1657 4.29714 10.8386 4.29714H12.8573C15.549 4.29714 16.2219 4.97005 16.2219 7.66172V9.0788" stroke="white" stroke-width="1.5" stroke-miterlimit="10" stroke-linecap="round" stroke-linejoin="round"/>
<path d="M7.46484 13.457H11.534" stroke="white" stroke-width="1.5" stroke-miterlimit="10" stroke-linecap="round" stroke-linejoin="round"/>
</svg>
