<svg width="18" height="18" viewBox="0 0 18 18" fill="none" xmlns="http://www.w3.org/2000/svg">
<path d="M1.55303 3.44625C2.15303 0.85125 6.06053 0.85125 6.65303 3.44625C7.00553 4.96875 6.03803 6.25875 5.19803 7.06125C4.58303 7.64625 3.61553 7.63875 3.00053 7.06125C2.16803 6.25875 1.20053 4.96875 1.55303 3.44625Z" stroke="#565C69" stroke-width="1.5"/>
<path d="M11.303 12.4463C11.903 9.85125 15.833 9.85125 16.433 12.4463C16.7855 13.9688 15.818 15.2588 14.9705 16.0613C14.3555 16.6463 13.3805 16.6388 12.7655 16.0613C11.918 15.2588 10.9505 13.9688 11.303 12.4463Z" stroke="#565C69" stroke-width="1.5"/>
<path d="M9.00026 3.75H11.0103C12.3978 3.75 13.0428 5.4675 12.0003 6.3825L6.00776 11.625C4.96526 12.5325 5.61026 14.25 6.99026 14.25H9.00026" stroke="#565C69" stroke-width="1.5" stroke-linecap="round" stroke-linejoin="round"/>
<path d="M4.11381 4.125H4.12247" stroke="#565C69" stroke-width="2" stroke-linecap="round" stroke-linejoin="round"/>
<path d="M13.8638 13.125H13.8725" stroke="#565C69" stroke-width="2" stroke-linecap="round" stroke-linejoin="round"/>
</svg>
