<svg width="64" height="64" viewBox="0 0 64 64" fill="none" xmlns="http://www.w3.org/2000/svg">
<path d="M16.4414 35.2026H35.1087M16.4414 22.7578H35.1087M47.5535 38.3139L43.6956 45.4696L35.1087 46.6208L41.3311 52.2209L39.8688 60.0923L47.5535 56.3589L55.2382 60.0923L53.7759 52.2209L59.9983 46.6208L51.4114 45.4696L47.5535 38.3139Z" stroke="#D45815" stroke-width="6.22242" stroke-linecap="round" stroke-linejoin="round"/>
<path d="M25.7785 60.0955H7.11121C6.28606 60.0955 5.49472 59.7677 4.91125 59.1842C4.32779 58.6008 4 57.8094 4 56.9843V10.3162L10.2224 4.09375H44.4457C45.2708 4.09375 46.0622 4.42154 46.6457 5.005C47.2291 5.58847 47.5569 6.37981 47.5569 7.20496V25.8722" stroke="#3C7939" stroke-width="6.22242" stroke-linecap="round" stroke-linejoin="round"/>
<path d="M4 10.3162H10.2224V4.09375L4 10.3162Z" stroke="#3C7939" stroke-width="6.22242" stroke-linecap="round" stroke-linejoin="round"/>
</svg>
