<svg width="160" height="160" viewBox="0 0 160 160" fill="none" xmlns="http://www.w3.org/2000/svg">
<path d="M121.1 76.2536L87.7256 76.8622C90.4348 67.3702 89.7575 64.4941 89.1783 61.2548C88.9254 59.8571 88.5205 58.4911 87.971 57.1812C88.1477 56.8573 88.3047 56.553 88.4323 56.288C89.1404 54.8048 89.6044 53.2171 89.8066 51.5861C90.3779 47.1016 90.7055 42.5895 90.7882 38.0695C91.5598 37.3295 92.5332 36.8343 93.5857 36.6462C97.6986 36.018 101.576 41.1714 103.235 44.499C103.988 46.0549 104.526 47.706 104.835 49.407C105.414 52.6462 106.091 55.5125 103.382 65.0045L136.756 64.4057C137.846 64.4221 138.92 64.6748 139.903 65.1462C140.886 65.6177 141.755 66.2967 142.45 67.1365C143.145 67.9763 143.65 68.9569 143.929 70.0106C144.209 71.0643 144.257 72.1662 144.069 73.2401C143.761 75.0405 142.827 76.6741 141.431 77.8523C140.036 79.0306 138.269 79.6777 136.442 79.6794H134.872C138.965 79.6794 142.283 83.3505 142.283 87.5321C142.283 91.7137 138.965 95.3849 134.872 95.3849H131.171C133.124 95.3849 134.996 96.1605 136.377 97.5412C137.757 98.9218 138.533 100.794 138.533 102.747C138.533 104.699 137.757 106.572 136.377 107.953C134.996 109.333 133.124 110.109 131.171 110.109H124.418C125.501 110.099 126.573 110.328 127.557 110.78C128.541 111.232 129.414 111.895 130.112 112.723C130.81 113.551 131.318 114.523 131.597 115.569C131.877 116.615 131.923 117.71 131.73 118.776C131.392 120.541 130.432 122.125 129.026 123.244C127.62 124.362 125.86 124.939 124.064 124.872L111.981 125.402C109.915 125.517 107.846 125.255 105.875 124.627C102.479 123.537 96.1575 121.319 96.3047 121.024" fill="#F4F5F8"/>
<path d="M56.2456 109.329V114.237C56.2456 115.213 55.8578 116.149 55.1675 116.84C54.4772 117.53 53.5409 117.918 52.5647 117.918H34.1597C33.6722 117.924 33.1883 117.834 32.736 117.652C32.2837 117.47 31.8721 117.2 31.5251 116.857C31.1781 116.515 30.9026 116.107 30.7145 115.657C30.5265 115.207 30.4296 114.724 30.4297 114.237V66.3841C30.4297 65.4078 30.8175 64.4716 31.5078 63.7813C32.1981 63.0909 33.1344 62.7031 34.1107 62.7031H52.5647C53.5409 62.7031 54.4772 63.0909 55.1675 63.7813C55.8578 64.4716 56.2456 65.4078 56.2456 66.3841V109.329Z" fill="#BDC0CE"/>
<path d="M56.2456 109.329V114.237C56.2456 115.213 55.8578 116.149 55.1675 116.84C54.4772 117.53 53.5409 117.918 52.5647 117.918H34.1597C33.6722 117.924 33.1883 117.834 32.736 117.652C32.2837 117.47 31.8721 117.2 31.5251 116.857C31.1781 116.515 30.9026 116.107 30.7145 115.657C30.5265 115.207 30.4296 114.724 30.4297 114.237V66.3841C30.4297 65.4078 30.8175 64.4716 31.5078 63.7813C32.1981 63.0909 33.1344 62.7031 34.1107 62.7031H52.5647C53.5409 62.7031 54.4772 63.0909 55.1675 63.7813C55.8578 64.4716 56.2456 65.4078 56.2456 66.3841V109.329Z" fill="black" fill-opacity="0.2"/>
<path d="M120.53 74.3897C122.489 74.4603 124.343 75.288 125.704 76.6987C127.065 78.1093 127.825 79.9929 127.825 81.9529C127.825 83.9129 127.065 85.7965 125.704 87.2071C124.343 88.6178 122.489 89.4455 120.53 89.5161H116.81C118.768 89.5867 120.623 90.4144 121.984 91.8251C123.345 93.2357 124.105 95.1193 124.105 97.0793C124.105 99.0393 123.345 100.923 121.984 102.334C120.623 103.744 118.768 104.572 116.81 104.642H110.056C111.148 104.654 112.224 104.903 113.209 105.373C114.195 105.843 115.066 106.522 115.762 107.363C116.458 108.204 116.963 109.187 117.24 110.243C117.518 111.298 117.562 112.402 117.369 113.477C117.04 115.263 116.09 116.875 114.687 118.029C113.284 119.182 111.519 119.802 109.703 119.779H81.0893C76.914 119.779 72.779 118.962 68.9175 117.374L56.5494 109.354H56.2451V74.056H56.8635C59.1605 71.8965 64.5396 65.1431 70.6647 56.878C71.9261 55.0238 73.0766 53.0965 74.1101 51.1063C74.8161 49.623 75.2769 48.0352 75.4746 46.4044C76.0512 41.9205 76.3789 37.4081 76.4562 32.8879C77.2304 32.1477 78.2079 31.6555 79.2635 31.4744C83.3666 30.8461 87.2439 35.9995 88.9028 39.3271C89.6677 40.8783 90.2065 42.5311 90.5028 44.2351C91.0917 47.4645 91.7691 50.3406 89.0598 59.8228L122.434 59.2044C123.525 59.2192 124.599 59.4707 125.583 59.9416C126.567 60.4125 127.436 61.0916 128.132 61.9318C128.827 62.772 129.332 63.7532 129.611 64.8077C129.89 65.8622 129.936 66.9646 129.747 68.0388C129.418 69.8249 128.468 71.4372 127.065 72.5905C125.662 73.7437 123.897 74.3637 122.081 74.3406H120.51L120.53 74.3897Z" fill="#FCE7D0"/>
<path d="M52.7415 62.4219H50.474L50.0617 64.6206C50.6046 66.1669 50.8445 67.8033 50.7685 69.4403L51.0433 109.538C51.0433 110.405 50.6989 111.237 50.0859 111.85C49.4729 112.463 48.6415 112.807 47.7746 112.807L30.5967 112.483V114.122C30.5967 114.989 30.9411 115.821 31.5541 116.434C32.1671 117.047 32.9985 117.391 33.8654 117.391H52.7415C53.637 117.391 54.4959 117.035 55.1291 116.402C55.7624 115.769 56.1182 114.91 56.1182 114.015V66.2599C56.1541 65.785 56.0948 65.3077 55.9436 64.856C55.7925 64.4044 55.5525 63.9875 55.2379 63.6299C54.9233 63.2723 54.5404 62.9813 54.1117 62.7738C53.683 62.5663 53.2171 62.4467 52.7415 62.4219Z" fill="#2853A6"/>
<path d="M52.5641 119.378H34.1592C32.7933 119.376 31.484 118.832 30.5181 117.866C29.5522 116.9 29.0085 115.591 29.0059 114.225V66.3721C29.0085 65.0062 29.5522 63.6969 30.5181 62.731C31.484 61.7651 32.7933 61.2213 34.1592 61.2188H52.5641C53.9301 61.2213 55.2394 61.7651 56.2053 62.731C57.1711 63.6969 57.7149 65.0062 57.7175 66.3721V114.225C57.7149 115.591 57.1711 116.9 56.2053 117.866C55.2394 118.832 53.9301 119.376 52.5641 119.378ZM34.1592 64.1635C33.5735 64.1635 33.0117 64.3962 32.5975 64.8104C32.1833 65.2246 31.9506 65.7864 31.9506 66.3721V114.225C31.9506 114.811 32.1833 115.372 32.5975 115.787C33.0117 116.201 33.5735 116.433 34.1592 116.433H52.5641C53.1499 116.433 53.7117 116.201 54.1259 115.787C54.54 115.372 54.7727 114.811 54.7727 114.225V66.3721C54.7727 65.7864 54.54 65.2246 54.1259 64.8104C53.7117 64.3962 53.1499 64.1635 52.5641 64.1635H34.1592Z" fill="#1C3A74"/>
<path d="M86.0267 60.3237C85.5244 60.1881 85.0965 59.8586 84.837 59.4077C84.5775 58.9568 84.5076 58.4213 84.6426 57.9188C86.6058 50.5372 85.6242 47.7888 85.0745 44.7949C84.7527 43.1143 84.2011 41.4859 83.4353 39.9556C82.2181 37.5017 79.823 34.1544 77.0156 32.7409C77.5341 32.4447 78.1034 32.2483 78.6942 32.1618C82.807 31.5336 86.6843 36.6967 88.3432 40.0145C89.0907 41.5075 89.6291 43.0962 89.9432 44.736C90.5224 47.9655 92.358 52.4415 89.688 61.2759L86.0267 60.3237Z" fill="#F4C7AD"/>
<path d="M129.109 67.7755C128.431 71.5055 124.476 73.8417 120.274 73.8417H118.449C123.19 73.8417 127.028 77.5129 127.028 81.6945C127.028 85.8761 123.19 89.5472 118.449 89.5472H114.169C118.91 89.5472 122.748 92.7374 122.748 96.919C122.748 101.101 118.91 104.271 114.169 104.271H106.316C111.519 104.271 115.641 108.659 114.777 113.39C114.1 117.12 110.154 119.977 105.943 119.977H90.002C94.2523 119.977 101.222 115.864 101.899 112.124C102.31 110.146 102.101 108.089 101.3 106.234C101.152 105.845 101.092 105.428 101.124 105.014C101.157 104.599 101.281 104.196 101.487 103.835C101.694 103.473 101.978 103.162 102.319 102.924C102.66 102.685 103.049 102.525 103.46 102.455C106.758 101.611 109.595 99.8442 109.614 96.9975C109.744 95.056 109.126 93.1383 107.887 91.638C107.616 91.3676 107.407 91.0422 107.273 90.6838C107.139 90.3254 107.083 89.9424 107.11 89.5608C107.137 89.1791 107.246 88.8078 107.429 88.4718C107.612 88.1358 107.865 87.8431 108.171 87.6135C110.233 86.0135 111.548 83.6871 111.548 81.8712C111.506 80.8987 111.263 79.9455 110.834 79.072C110.405 78.1984 109.799 77.4235 109.055 76.7963C108.738 76.5024 108.497 76.136 108.353 75.7286C108.209 75.3212 108.166 74.885 108.228 74.4573C108.29 74.0296 108.455 73.6234 108.708 73.2734C108.961 72.9233 109.296 72.6401 109.683 72.4479C110.58 71.9744 111.362 71.3082 111.971 70.4969C112.58 69.6857 113.002 68.7496 113.207 67.7558C113.953 63.6626 107.592 60.4822 103.391 59.5791L120.628 59C125.85 59.0196 129.973 63.0442 129.109 67.7755Z" fill="#F4C7AD"/>
<path d="M120.53 90.9917H112.962C112.571 90.9917 112.197 90.8365 111.921 90.5604C111.644 90.2843 111.489 89.9098 111.489 89.5193C111.489 89.1288 111.644 88.7543 111.921 88.4781C112.197 88.202 112.571 88.0469 112.962 88.0469H120.53C120.92 88.0469 121.295 88.202 121.571 88.4781C121.847 88.7543 122.002 89.1288 122.002 89.5193C122.002 89.9098 121.847 90.2843 121.571 90.5604C121.295 90.8365 120.92 90.9917 120.53 90.9917Z" fill="#1C3A74"/>
<path d="M120.53 90.9774C120.14 90.9774 119.765 90.8223 119.489 90.5462C119.213 90.27 119.058 89.8955 119.058 89.505C119.058 89.1145 119.213 88.74 119.489 88.4639C119.765 88.1878 120.14 88.0326 120.53 88.0326C122.103 87.9695 123.591 87.3001 124.681 86.1648C125.772 85.0295 126.381 83.5162 126.381 81.9418C126.381 80.3675 125.772 78.8542 124.681 77.7189C123.591 76.5835 122.103 75.9142 120.53 75.851C120.14 75.851 119.765 75.6959 119.489 75.4198C119.213 75.1437 119.058 74.7691 119.058 74.3786C119.058 73.9881 119.213 73.6136 119.489 73.3375C119.765 73.0614 120.14 72.9062 120.53 72.9062C122.875 72.9835 125.098 73.9694 126.729 75.6554C128.361 77.3415 129.273 79.5957 129.273 81.9418C129.273 84.2879 128.361 86.5422 126.729 88.2282C125.098 89.9143 122.875 90.9001 120.53 90.9774Z" fill="#1C3A74"/>
<path d="M116.81 106.118H109.252C108.861 106.118 108.487 105.963 108.211 105.687C107.934 105.411 107.779 105.036 107.779 104.646C107.779 104.255 107.934 103.881 108.211 103.605C108.487 103.328 108.861 103.173 109.252 103.173H116.81C118.383 103.11 119.871 102.441 120.961 101.305C122.052 100.17 122.661 98.6568 122.661 97.0825C122.661 95.5081 122.052 93.9948 120.961 92.8595C119.871 91.7242 118.383 91.0548 116.81 90.9917C116.419 90.9917 116.045 90.8365 115.769 90.5604C115.493 90.2843 115.338 89.9098 115.338 89.5193C115.338 89.1288 115.493 88.7543 115.769 88.4781C116.045 88.202 116.419 88.0469 116.81 88.0469C119.155 88.1242 121.378 89.11 123.009 90.7961C124.641 92.4821 125.553 94.7363 125.553 97.0825C125.553 99.4286 124.641 101.683 123.009 103.369C121.378 105.055 119.155 106.041 116.81 106.118Z" fill="#1C3A74"/>
<path d="M109.713 121.233H81.0892C76.7119 121.242 72.3757 120.388 68.3285 118.72L68.0831 118.593L55.715 110.573C55.387 110.361 55.1567 110.027 55.0747 109.645C54.9928 109.263 55.066 108.864 55.2782 108.536C55.4903 108.208 55.8241 107.978 56.2061 107.896C56.5881 107.814 56.987 107.887 57.315 108.099L69.5653 116.041C73.2116 117.527 77.1122 118.291 81.05 118.288H109.673C110.858 118.324 112.027 118.015 113.039 117.399C114.052 116.782 114.863 115.885 115.374 114.816C115.886 113.747 116.076 112.552 115.921 111.377C115.766 110.202 115.274 109.098 114.503 108.198C113.952 107.548 113.266 107.025 112.493 106.666C111.72 106.306 110.879 106.119 110.027 106.117C109.636 106.117 109.262 105.962 108.986 105.685C108.709 105.409 108.554 105.035 108.554 104.644C108.554 104.254 108.709 103.879 108.986 103.603C109.262 103.327 109.636 103.172 110.027 103.172C111.304 103.174 112.566 103.454 113.725 103.991C114.884 104.528 115.913 105.31 116.741 106.284C117.875 107.609 118.602 109.233 118.836 110.962C119.069 112.691 118.798 114.45 118.056 116.029C117.314 117.608 116.132 118.938 114.652 119.862C113.172 120.785 111.457 121.261 109.713 121.233Z" fill="#1C3A74"/>
<path d="M122.1 75.8462H114.63C114.24 75.8462 113.865 75.691 113.589 75.4149C113.313 75.1388 113.158 74.7643 113.158 74.3738C113.158 73.9833 113.313 73.6088 113.589 73.3326C113.865 73.0565 114.24 72.9014 114.63 72.9014H122.1C123.282 72.9335 124.448 72.6224 125.457 72.0056C126.466 71.3888 127.274 70.4928 127.784 69.4261C128.294 68.3593 128.484 67.1676 128.33 65.9953C128.177 64.8229 127.687 63.7201 126.92 62.8204C126.37 62.1716 125.686 61.6496 124.915 61.2904C124.144 60.9312 123.304 60.7432 122.454 60.7394L89.1383 61.3578C88.9076 61.3664 88.6783 61.3191 88.4698 61.22C88.2613 61.1209 88.0798 60.9728 87.9408 60.7885C87.8005 60.6053 87.7051 60.3918 87.6625 60.165C87.6199 59.9382 87.6311 59.7046 87.6954 59.483C90.2181 50.6486 89.7077 47.8413 89.1678 44.8768L89.1089 44.5627C88.8398 42.9847 88.3439 41.454 87.6365 40.018C86.0954 36.9063 82.7285 32.4499 79.5383 32.9407C78.9682 33.0374 78.4295 33.2697 77.9678 33.6179C77.8722 37.9677 77.5445 42.3093 76.9862 46.6241C76.7662 48.4052 76.2591 50.139 75.4844 51.7578C74.4102 53.8315 73.2104 55.8377 71.8917 57.7652C65.3641 66.4916 60.142 72.9799 57.9138 75.1198C57.7732 75.2547 57.6072 75.3605 57.4254 75.4308C57.2436 75.5011 57.0497 75.5346 56.8549 75.5294C56.66 75.5241 56.4682 75.4803 56.2904 75.4004C56.1126 75.3204 55.9525 75.206 55.8193 75.0637C55.6861 74.9214 55.5825 74.7541 55.5145 74.5715C55.4465 74.3888 55.4154 74.1945 55.423 73.9997C55.4307 73.805 55.4769 73.6137 55.559 73.4369C55.6412 73.2602 55.7576 73.1015 55.9015 72.9701C58.0218 71.0069 63.2439 64.4695 69.5261 55.9885C70.7358 54.2058 71.8404 52.354 72.8341 50.4425C73.4722 49.0987 73.8867 47.6597 74.061 46.1824C74.6332 41.7604 74.9609 37.3103 75.0426 32.8523C75.0451 32.6481 75.09 32.4467 75.1745 32.2608C75.259 32.0749 75.3812 31.9087 75.5334 31.7725C76.5237 30.8435 77.767 30.2287 79.1064 30.0057C84.1518 29.24 88.5003 35.1002 90.277 38.6928C91.1072 40.3768 91.6891 42.1721 92.0046 44.0229L92.0635 44.3272C92.6034 47.2719 93.1629 50.3051 91.0819 58.364L122.493 57.7848C123.759 57.7894 125.01 58.0661 126.16 58.5962C127.31 59.1263 128.332 59.8974 129.158 60.8572C130.307 62.1834 131.045 63.8146 131.285 65.5526C131.524 67.2906 131.253 69.0608 130.506 70.648C129.759 72.2353 128.567 73.5714 127.074 74.4942C125.582 75.417 123.854 75.8866 122.1 75.8462Z" fill="#1C3A74"/>
</svg>
