<svg width="81" height="81" viewBox="0 0 81 81" fill="none" xmlns="http://www.w3.org/2000/svg">
<path d="M41.1977 69.0914V76.5893L1.98926 53.9509V46.4531L41.1977 69.0914Z" stroke="#7E8494" stroke-width="0.666667" stroke-linecap="round" stroke-linejoin="round"/>
<path d="M41.1977 57.5552V61.5893L8.95105 42.968L1.98926 38.9509V31.4531L15.9127 39.4871L19.0105 41.2828L32.6956 49.1807C33.9552 50.7807 35.2829 52.2872 36.7042 53.6999C38.1169 55.1042 39.6147 56.3977 41.1977 57.5552Z" stroke="#7E8494" stroke-width="0.666667" stroke-linecap="round" stroke-linejoin="round"/>
<path d="M25.6744 37.6276L8.95105 27.9681L1.98926 23.951V16.4531L15.9127 24.4872L19.0105 26.2829L22.5681 28.334C22.951 29.934 23.385 31.4914 23.8786 33.0233C23.9041 33.117 23.9382 33.2021 23.9722 33.2957C24.4318 34.7425 25.0105 36.1893 25.6744 37.6276Z" stroke="#7E8494" stroke-width="0.666667" stroke-linecap="round" stroke-linejoin="round"/>
<path d="M58.2195 60.5781V68.076L41.1982 76.5866V69.0888L51.2579 64.0589L58.2195 60.5781Z" fill="#BDC0CE"/>
<path d="M58.2195 60.5781V68.076L41.1982 76.5866V69.0888L51.2579 64.0589L58.2195 60.5781Z" fill="black" fill-opacity="0.2"/>
<path d="M58.2195 60.5781V68.076L41.1982 76.5866V69.0888L51.2579 64.0589L58.2195 60.5781Z" stroke="#7E8494" stroke-width="0.666667" stroke-linecap="round" stroke-linejoin="round"/>
<path d="M58.219 60.5773L51.2573 64.058L41.1977 69.0879L1.98926 46.4496L8.95105 42.9688L41.1977 61.59L44.3042 60.0411L51.2573 56.5602L58.219 60.5773Z" stroke="#7E8494" stroke-width="0.666667" stroke-linecap="round" stroke-linejoin="round"/>
<path d="M57.2134 29.0913C56.8474 28.3594 56.4474 27.6274 56.0134 26.887C52.9921 21.67 49.3751 17.7636 45.1538 15.1509C44.924 15.0062 44.6942 14.87 44.4559 14.7338C40.3198 12.3423 36.7538 11.8062 33.7325 13.1253L32.8984 13.5423C32.2261 13.9253 31.6219 14.3848 31.1027 14.921C29.673 16.3508 28.7623 18.3252 28.3623 20.8444C28.2006 21.8316 28.124 22.8954 28.124 24.0444C28.124 24.538 28.141 25.0401 28.1751 25.5337C28.2262 26.4869 28.3368 27.4486 28.4985 28.4189C28.873 30.6572 29.5368 32.921 30.49 35.2189C30.8304 36.0529 31.2134 36.887 31.6474 37.7296C32.0219 38.504 32.4473 39.2785 32.8984 40.0615C34.3537 42.5721 35.9454 44.7764 37.673 46.6828C39.7411 48.9551 41.9964 50.8019 44.4559 52.2232C45.8176 53.0062 47.1027 53.5934 48.3453 53.9764H48.3538C51.2389 54.87 53.7921 54.6827 56.0134 53.4146C56.473 53.1593 56.89 52.8615 57.2815 52.5296C57.6219 52.2487 57.9367 51.9423 58.2176 51.6018C59.8771 49.6784 60.7368 46.9125 60.7878 43.304C60.7964 43.1678 60.7964 43.0402 60.7964 42.904C60.7964 38.4189 59.6049 33.8147 57.2134 29.0913ZM45.6049 44.8189C45.273 45.0062 44.8985 44.9721 44.4559 44.7253C44.0985 44.5126 43.7666 44.1977 43.4942 43.7721C43.4262 43.687 43.3665 43.5934 43.3154 43.4998C42.992 42.9381 42.8219 42.4018 42.8219 41.9082C42.8219 41.4146 42.992 41.0657 43.3154 40.8784C43.6388 40.6912 44.0219 40.7252 44.4559 40.972C44.8985 41.2274 45.273 41.636 45.6049 42.1977C45.6815 42.3423 45.7581 42.4785 45.8176 42.6147C45.9964 43.0232 46.0899 43.4147 46.0899 43.7892C46.0899 44.2913 45.9283 44.6317 45.6049 44.8189ZM46.0899 38.1721L42.8219 36.2827V21.2869L46.0899 23.1764V38.1721Z" stroke="#7E8494" stroke-width="0.666667" stroke-linecap="round" stroke-linejoin="round"/>
<path d="M46.0912 23.1707V34.643L42.8232 36.277V21.2812L46.0912 23.1707Z" fill="#2853A6" stroke="#7E8494" stroke-width="0.666667" stroke-linecap="round" stroke-linejoin="round"/>
<path d="M46.0912 34.6562V38.1797L42.8232 36.2902L46.0912 34.6562Z" fill="#E5E7EF" stroke="#7E8494" stroke-width="0.666667" stroke-linecap="round" stroke-linejoin="round"/>
<path d="M30.4848 35.2164L28.7742 36.0759L25.6678 37.6249C25.004 36.1866 24.4253 34.7398 23.9657 33.293C23.9316 33.1993 23.8976 33.1142 23.8721 33.0206C23.3785 31.4887 22.9445 29.9313 22.5615 28.3313L25.6593 26.7823L28.17 25.5312C28.2211 26.4844 28.3317 27.4461 28.4934 28.4164C28.8679 30.6547 29.5317 32.9185 30.4848 35.2164Z" stroke="#7E8494" stroke-width="0.666667" stroke-linecap="round" stroke-linejoin="round"/>
<path d="M28.3637 20.8395C28.202 21.8268 28.1254 22.8907 28.1254 24.0396C28.1254 24.5332 28.1425 25.0353 28.1765 25.529L25.6658 26.78L22.5681 28.329L19.0105 26.2779L15.9127 24.4822L1.98926 16.4481L19.0105 7.9375L31.1042 14.9162C29.6744 16.346 28.7637 18.3204 28.3637 20.8395Z" stroke="#7E8494" stroke-width="0.666667" stroke-linecap="round" stroke-linejoin="round"/>
<path d="M37.6744 46.6836L35.7935 47.6283L32.6956 49.1772L19.0105 41.2793L15.9127 39.4836L1.98926 31.4496L8.95105 27.9688L25.6744 37.6283L28.7807 36.0793L31.6488 37.7305C32.0233 38.5049 32.4487 39.2794 32.8998 40.0624C34.3551 42.573 35.9468 44.7773 37.6744 46.6836Z" stroke="#7E8494" stroke-width="0.666667" stroke-linecap="round" stroke-linejoin="round"/>
<path d="M46.0912 43.7957C46.0912 44.2979 45.9296 44.6383 45.6062 44.8255C45.2743 45.0128 44.8998 44.9787 44.4573 44.7319C44.0998 44.5191 43.7679 44.2042 43.4956 43.7787C43.4275 43.6936 43.3678 43.6001 43.3168 43.5065C42.9934 42.9448 42.8232 42.4085 42.8232 41.9149C42.8232 41.4213 42.9934 41.0723 43.3168 40.8851C43.6402 40.6979 44.0232 40.7319 44.4573 40.9787C44.8998 41.234 45.2743 41.6425 45.6062 42.2042C45.6828 42.3489 45.7594 42.4851 45.819 42.6213C45.9977 43.0298 46.0912 43.4213 46.0912 43.7957Z" stroke="#7E8494" stroke-width="0.666667" stroke-linecap="round" stroke-linejoin="round"/>
<path d="M48.2712 53.6998L47.4371 54.1168L41.1222 57.2742C39.5393 56.1168 38.0415 54.8232 36.6287 53.4189C35.2074 52.0062 33.8797 50.4998 32.6201 48.8998L35.718 47.3508L37.5989 46.4062C39.667 48.6786 41.9222 50.5254 44.3818 51.9467C45.7435 52.7297 47.0286 53.3168 48.2712 53.6998Z" stroke="#7E8494" stroke-width="0.666667" stroke-linecap="round" stroke-linejoin="round"/>
<path d="M58.2195 52.3125V53.0699L51.2579 56.5508L44.3046 60.0316L41.1982 61.5806V57.5465L47.5132 54.389L48.3472 53.972H48.3557C51.2408 54.8656 53.794 54.6784 56.0153 53.4103L57.5132 52.6614L58.2195 52.3125Z" stroke="#7E8494" stroke-width="0.666667" stroke-linecap="round" stroke-linejoin="round"/>
<path d="M77.8184 34.3885C77.8184 39.58 76.2269 43.0779 73.0354 44.8992L72.2525 45.2907L58.2184 52.3119L57.512 52.6608L56.0142 53.4098C56.4737 53.1545 56.8908 52.8566 57.2823 52.5247C57.6227 52.2438 57.9376 51.9374 58.2184 51.597C59.878 49.6735 60.7376 46.9076 60.7886 43.2991C60.7971 43.1629 60.7971 43.0353 60.7971 42.8992C60.7971 38.4141 59.6057 33.8098 57.2143 29.0864C56.8483 28.3545 56.4482 27.6226 56.0142 26.8821C52.9929 21.6651 49.3759 17.7587 45.1546 15.146C44.9248 15.0013 44.6951 14.8651 44.4568 14.729C40.3206 12.3375 36.7547 11.8013 33.7334 13.1204L49.9205 5.02681C53.112 3.20553 56.9589 3.60556 61.4781 6.21832C65.9972 8.82258 69.8525 12.8736 73.0354 18.3715C76.2269 23.8694 77.8184 29.2055 77.8184 34.3885Z" fill="#2853A6"/>
</svg>
