<svg width="33" height="33" viewBox="0 0 33 33" fill="none" xmlns="http://www.w3.org/2000/svg">
<g clip-path="url(#clip0_6132_206716)">
<path d="M8.75123 20.51C7.84303 19.6018 7.09515 18.48 6.56089 17.3047L2.98161 29.1644C2.76795 29.8589 3.56928 30.3932 4.15688 29.9658L7.62936 27.5618C8.48409 26.9741 9.65943 27.2946 10.0334 28.2562L11.4758 31.7821C11.7963 32.5301 12.9182 32.4766 13.1318 31.7287L15.5358 23.8222C12.8648 23.662 10.4608 22.3798 8.75123 20.51Z" fill="#FFE100"/>
<path d="M3.46207 1.4375C3.46207 2.61277 2.50047 3.57437 1.3252 3.57437C2.50047 3.57437 3.46207 4.53597 3.46207 5.71125C3.46207 4.53597 4.42367 3.57437 5.59894 3.57437C4.42367 3.57444 3.46207 2.61283 3.46207 1.4375Z" fill="#FFE100"/>
<path d="M2.92876 15.3311C2.92876 15.6516 2.71509 15.8653 2.39455 15.8653C2.07402 15.8653 1.86035 15.6516 1.86035 15.3311C1.86035 15.0105 2.07402 14.7969 2.39455 14.7969C2.71509 14.7969 2.92876 15.0105 2.92876 15.3311Z" fill="#FFE100"/>
<path d="M30.1758 12.1193C29.8553 12.1193 29.6416 11.9057 29.6416 11.5851V9.44826C29.6416 9.12773 29.8553 8.91406 30.1758 8.91406C30.4963 8.91406 30.71 9.12773 30.71 9.44826V11.5851C30.71 11.9057 30.4963 12.1193 30.1758 12.1193Z" fill="#FFE100"/>
<path d="M31.2424 11.0528H29.1055C28.785 11.0528 28.5713 10.8391 28.5713 10.5186C28.5713 10.198 28.785 9.98438 29.1055 9.98438H31.2424C31.5629 9.98438 31.7766 10.198 31.7766 10.5186C31.7766 10.8391 31.5629 11.0528 31.2424 11.0528Z" fill="#FFE100"/>
<path d="M26.4343 13.7283C26.4343 19.3377 21.8934 23.8786 16.2841 23.8786C10.6747 23.8786 6.13379 19.3377 6.13379 13.7283C6.13379 8.119 10.6747 3.57812 16.284 3.57812C21.8934 3.57812 26.4343 8.119 26.4343 13.7283Z" fill="#FFE100"/>
<path d="M26.0084 17.3047C25.4742 18.6402 24.6194 19.8156 23.551 20.8306C21.8949 22.5401 19.5977 23.662 17.0869 23.8756L19.4909 31.7287C19.7046 32.5301 20.8265 32.5301 21.147 31.7821L22.5894 28.2562C22.9633 27.348 24.1387 26.9741 24.9934 27.5618L28.4659 29.9658C29.0535 30.3932 29.8549 29.8589 29.6411 29.1644L26.0084 17.3047Z" fill="#FFE100"/>
<path d="M16.5562 3.73438C16.2891 3.73438 16.022 3.73438 15.7549 3.78778C20.9903 4.21518 25.1038 8.54239 25.1038 13.8846C25.1038 19.2268 20.9903 23.554 15.7549 23.9814C16.022 23.9814 16.2891 24.0348 16.5562 24.0348C22.1656 24.0348 26.7064 19.4939 26.7064 13.8846C26.7064 8.27525 22.1656 3.73438 16.5562 3.73438Z" fill="#FFA800"/>
<path d="M29.9104 29.3207L26.2777 17.4609C26.0106 18.102 25.6366 18.7431 25.2627 19.3307L28.3078 29.3207C28.3612 29.481 28.3612 29.6946 28.2544 29.8015L28.6818 30.122C29.3228 30.5494 30.1242 30.0152 29.9104 29.3207Z" fill="#FFA800"/>
<path d="M16.2879 3.57812C16.555 3.57812 16.8221 3.57813 17.0893 3.63153C11.8539 4.00546 7.74037 8.38614 7.74037 13.7283C7.74037 19.0706 11.8539 23.4512 17.0893 23.8252C16.8221 23.8786 16.555 23.8786 16.2879 23.8786C10.6786 23.8786 6.1377 19.3377 6.1377 13.7283C6.1377 8.119 10.6786 3.57812 16.2879 3.57812Z" fill="white"/>
<path d="M2.98552 29.1644L6.5648 17.3047C6.83193 17.9458 7.20586 18.5868 7.5798 19.1745L4.58819 29.1644C4.53479 29.3781 4.53479 29.5384 4.58819 29.6986L4.16079 30.0192C3.57319 30.3932 2.77185 29.859 2.98552 29.1644Z" fill="white"/>
<path d="M23.7659 13.7291C23.7659 17.8427 20.4002 21.2083 16.2867 21.2083C12.1732 21.2083 8.80762 17.8427 8.80762 13.7291C8.80762 9.61561 12.1732 6.25 16.2868 6.25C20.4003 6.25 23.7659 9.61561 23.7659 13.7291Z" fill="#00DA6C"/>
<path d="M16.2851 24.4159C10.4086 24.4159 5.60059 19.6078 5.60059 13.7314C5.60059 7.85489 10.4086 3.04688 16.2851 3.04688C22.1616 3.04688 26.9696 7.85489 26.9696 13.7314C26.9696 19.6078 22.1616 24.4159 16.2851 24.4159ZM16.2851 4.11534C10.9963 4.11534 6.66905 8.44255 6.66905 13.7314C6.66905 19.0202 10.9963 23.3474 16.2851 23.3474C21.5739 23.3474 25.9011 19.0202 25.9011 13.7314C25.9011 8.44255 21.5739 4.11534 16.2851 4.11534Z" fill="black"/>
<path d="M20.2919 32.9069C19.6509 32.9069 19.1167 32.533 18.9564 31.8919L16.5524 23.9855C16.499 23.8252 16.5524 23.6649 16.6058 23.5047C16.7127 23.3444 16.8195 23.291 16.9797 23.291C19.3303 23.1307 21.4672 22.1157 23.1233 20.4062C24.1917 19.4446 24.9396 18.3227 25.4739 17.094C25.5807 16.8803 25.741 16.7734 26.0081 16.7734C26.2218 16.7734 26.4355 16.9337 26.4889 17.1474L30.0682 29.0071C30.175 29.3811 30.1216 29.8085 29.8545 30.129C29.5874 30.4495 29.2134 30.6632 28.786 30.6632C28.5189 30.6632 28.2518 30.5563 28.0381 30.4495L24.5656 28.0455C24.4054 27.9387 24.1917 27.8319 23.9246 27.8319C23.4972 27.8319 23.0698 28.099 22.9629 28.4729L21.6274 31.9988C21.4138 32.5329 20.8796 32.9069 20.2919 32.9069ZM17.7811 24.3059L19.9715 31.5713C20.0249 31.785 20.2386 31.785 20.292 31.785C20.3454 31.785 20.5591 31.785 20.6125 31.5713L22.0549 28.0455C22.3755 27.2441 23.1768 26.7633 24.0315 26.7633C24.4589 26.7633 24.8863 26.9236 25.2603 27.1373L28.7327 29.5413C28.7861 29.5947 28.8396 29.5947 28.893 29.5947C28.9464 29.5947 29.0533 29.5413 29.1067 29.4878C29.1601 29.4344 29.1601 29.3809 29.1067 29.3275L25.9013 18.7499C25.3671 19.6582 24.726 20.4595 23.9247 21.2074C22.2686 22.8635 20.1317 23.9854 17.7811 24.3059Z" fill="black"/>
<path d="M12.2795 32.907C11.6918 32.907 11.211 32.5865 10.944 32.0523L9.50157 28.5264C9.3413 28.1525 8.96736 27.8853 8.53996 27.8853C8.3263 27.8853 8.11257 27.9387 7.8989 28.099L4.42642 30.503C3.83876 30.9304 3.03742 30.7701 2.61009 30.1825C2.39642 29.8619 2.28955 29.4345 2.39642 29.0606L5.97569 17.2008C6.13596 16.9337 6.34963 16.7734 6.56336 16.7734C6.77703 16.7734 6.99076 16.8803 7.09756 17.094C7.57836 18.2158 8.27283 19.2308 9.18103 20.139C10.8906 22.0088 13.1343 23.1307 15.5917 23.291C15.752 23.291 15.9122 23.3978 16.0191 23.5047C16.126 23.6649 16.126 23.8252 16.0725 23.9855L13.6685 31.8919C13.4548 32.4796 12.9206 32.907 12.2795 32.907ZM8.53996 26.7634C9.3947 26.7634 10.196 27.2976 10.5166 28.0455L11.959 31.5714C12.0124 31.7317 12.2261 31.7851 12.2795 31.7851C12.3329 31.7851 12.5466 31.7851 12.6 31.5714L14.7904 24.306C12.2795 23.9855 10.0358 22.7567 8.3263 20.887C7.68523 20.2459 7.15103 19.5514 6.67022 18.7501L3.46488 29.3277C3.46488 29.3811 3.46488 29.4346 3.46488 29.488C3.51829 29.5949 3.67855 29.6483 3.83882 29.5414L7.31129 27.1374C7.68523 26.9237 8.11256 26.7634 8.53996 26.7634Z" fill="black"/>
<path d="M3.46502 6.24846C3.14449 6.24846 2.93082 6.03479 2.93082 5.71426C2.93082 4.80606 2.23635 4.11159 1.32815 4.11159C1.00761 4.11159 0.793945 3.89792 0.793945 3.57739C0.793945 3.25685 1.00761 3.04319 1.32815 3.04319C2.23635 3.04319 2.93082 2.34872 2.93082 1.44052C2.93082 1.11992 3.14449 0.90625 3.46502 0.90625C3.78555 0.90625 3.99922 1.11992 3.99922 1.44045C3.99922 2.34865 4.69369 3.04312 5.60189 3.04312C5.92243 3.04312 6.1361 3.25679 6.1361 3.57733C6.1361 3.89786 5.92249 4.11159 5.60196 4.11159C4.69375 4.11159 3.99929 4.80606 3.99929 5.71426C3.99929 6.03479 3.78555 6.24846 3.46502 6.24846ZM2.93082 3.57739C3.14449 3.73765 3.30475 3.89792 3.46502 4.11159C3.62529 3.89792 3.78555 3.73765 3.99922 3.57739C3.78555 3.41712 3.62529 3.25685 3.46502 3.04319C3.30475 3.25685 3.14449 3.41712 2.93082 3.57739Z" fill="black"/>
<path d="M29.6406 11.5882C29.3201 11.5882 29.1064 11.3745 29.1064 11.054V8.91701C29.1064 8.59648 29.3201 8.38281 29.6406 8.38281C29.9612 8.38281 30.1749 8.59648 30.1749 8.91701V11.0539C30.1749 11.3744 29.9612 11.5882 29.6406 11.5882Z" fill="black"/>
<path d="M30.7092 10.5215H28.5723C28.2518 10.5215 28.0381 10.3079 28.0381 9.98733C28.0381 9.66679 28.2518 9.45312 28.5723 9.45312H30.7092C31.0297 9.45312 31.2434 9.66679 31.2434 9.98733C31.2434 10.3079 31.0297 10.5215 30.7092 10.5215Z" fill="black"/>
<path d="M2.39555 14.7998C2.39555 15.1204 2.18188 15.334 1.86135 15.334C1.54082 15.334 1.32715 15.1204 1.32715 14.7998C1.32715 14.4793 1.54082 14.2656 1.86135 14.2656C2.18188 14.2656 2.39555 14.4793 2.39555 14.7998Z" fill="black"/>
<path d="M16.2858 21.7376C11.8517 21.7376 8.27246 18.1584 8.27246 13.7243C8.27246 9.29021 11.8517 5.71094 16.2858 5.71094C20.7199 5.71094 24.2992 9.29021 24.2992 13.7243C24.2992 18.1584 20.7199 21.7376 16.2858 21.7376ZM16.2858 6.7794C12.4394 6.7794 9.34093 9.87788 9.34093 13.7243C9.34093 17.5707 12.4394 20.6692 16.2858 20.6692C20.1322 20.6692 23.2308 17.5707 23.2308 13.7243C23.2308 9.87788 20.1322 6.7794 16.2858 6.7794Z" fill="black"/>
<path d="M16.2854 18.0517C14.7896 18.0517 13.6143 16.8764 13.6143 15.3806C13.6143 15.06 13.8279 14.8464 14.1485 14.8464C14.469 14.8464 14.6827 15.06 14.6827 15.3806C14.6827 16.2888 15.3771 16.9832 16.2853 16.9832C16.7661 16.9832 17.1935 16.7696 17.5141 16.3956C17.6743 16.2353 17.7277 16.0216 17.6743 15.8079C17.6743 15.5942 17.5141 15.3805 17.3538 15.2202L14.5759 13.0299C14.1485 12.7094 13.8814 12.2286 13.8279 11.6944C13.7745 11.1602 13.9348 10.6794 14.2553 10.3054C14.7895 9.71769 15.4841 9.34375 16.2854 9.34375C17.7812 9.34375 18.9565 10.519 18.9565 12.0149C18.9565 12.3354 18.7429 12.5491 18.4223 12.5491C18.1018 12.5491 17.8881 12.3354 17.8881 12.0149C17.8881 11.1067 17.1937 10.4122 16.2855 10.4122C15.8047 10.4122 15.3773 10.6259 15.0567 10.9999C14.8965 11.1602 14.8431 11.3738 14.8965 11.5876C14.8965 11.8012 15.0567 12.015 15.217 12.1752L17.9949 14.3656C18.4223 14.6861 18.6894 15.1669 18.7429 15.7011C18.7963 16.2353 18.636 16.7161 18.3155 17.0901C17.8347 17.6778 17.0867 18.0517 16.2854 18.0517Z" fill="black"/>
<path d="M16.2871 19.0672C15.9666 19.0672 15.7529 18.8001 15.7529 18.533V15.7551V8.91701C15.7529 8.59648 15.9666 8.38281 16.2871 8.38281C16.6077 8.38281 16.8213 8.59648 16.8213 8.91701V15.7551V18.533C16.8214 18.8536 16.5543 19.0672 16.2871 19.0672Z" fill="black"/>
</g>
<defs>
<clipPath id="clip0_6132_206716">
<rect width="32" height="32" fill="white" transform="translate(0.286133 0.90625)"/>
</clipPath>
</defs>
</svg>
