<svg width="62" height="59" viewBox="0 0 62 59" fill="none" xmlns="http://www.w3.org/2000/svg">
<path d="M44.8896 43.0956L59 55.0942M3 27.0906C3.00136 15.6421 11.0895 5.78892 22.3181 3.5567C33.5468 1.32448 44.7887 7.3349 49.1686 17.9123C53.5485 28.4896 49.8469 40.6882 40.3276 47.0474C30.808 53.4071 18.1217 52.1564 10.0272 44.0606C5.52703 39.5595 2.99924 33.455 3 27.0906ZM27.0042 39.1028L34.0754 32.0756C35.95 30.2167 37.0042 27.6862 37.0042 25.0465C37.0042 22.4064 35.95 19.8759 34.0754 18.0171C30.1614 14.1331 23.847 14.1331 19.933 18.0171C18.0584 19.8759 17.0039 22.4064 17.0039 25.0465C17.0039 27.6862 18.0584 30.2167 19.933 32.0756L27.0042 39.1028Z" stroke="#3C7939" stroke-width="5.9993" stroke-linecap="round" stroke-linejoin="round"/>
</svg>
