<svg width="56" height="56" viewBox="0 0 56 56" fill="none" xmlns="http://www.w3.org/2000/svg">
<path d="M37.6707 30.3L37.2707 35.3C37.1207 36.83 37.0007 38 34.2907 38H21.7107C19.0007 38 18.8807 36.83 18.7307 35.3L18.3307 30.3C18.2507 29.47 18.5107 28.7 18.9807 28.11C18.9907 28.1 18.9907 28.1 19.0007 28.09C19.5507 27.42 20.3807 27 21.3107 27H34.6907C35.6207 27 36.4407 27.42 36.9807 28.07C36.9907 28.08 37.0007 28.09 37.0007 28.1C37.4907 28.69 37.7607 29.46 37.6707 30.3Z" stroke="#2853A6" stroke-width="1.5" stroke-miterlimit="10"/>
<path d="M19.5 27.4312V22.2812C19.5 18.8812 20.35 18.0312 23.75 18.0312H25.02C26.29 18.0312 26.58 18.4112 27.06 19.0512L28.33 20.7512C28.65 21.1712 28.84 21.4312 29.69 21.4312H32.24C35.64 21.4312 36.49 22.2812 36.49 25.6812V27.4712" stroke="#2853A6" stroke-width="1.5" stroke-miterlimit="10" stroke-linecap="round" stroke-linejoin="round"/>
<path d="M25.4297 33H30.5697" stroke="#2853A6" stroke-width="1.5" stroke-miterlimit="10" stroke-linecap="round" stroke-linejoin="round"/>
</svg>
