<svg width="151" height="168" viewBox="0 0 151 168" fill="none" xmlns="http://www.w3.org/2000/svg">
<path d="M91.3315 153.898C90.3978 152.292 89.2038 150.991 87.7497 149.98C86.3109 148.986 84.9794 148.572 83.7702 148.725C81.7192 149.047 79.5915 149.077 77.4027 148.832C75.1987 148.572 72.9487 148.098 70.6068 147.394C69.7497 147.18 68.9844 147.195 68.3109 147.424L68.173 147.486C67.8669 147.608 67.5764 147.776 67.3162 147.991C66.4284 148.71 65.9844 149.812 65.9844 151.312C65.9844 153.455 66.6272 155.505 67.8823 157.465C69.1374 159.424 70.607 160.679 72.2907 161.215C75.5509 162.24 78.7038 162.944 81.7344 163.296C84.765 163.648 87.7345 163.602 90.6274 163.128C91.0407 163.067 91.3927 162.944 91.6988 162.761L91.7753 162.715C92.5407 162.225 92.9844 161.337 93.0762 160.051C93.214 158.199 92.6325 156.148 91.3315 153.898Z" stroke="#2853A6" stroke-width="1.53061"/>
<path d="M115.253 137.043C114.519 140.471 113.508 143.563 112.253 146.318C112.008 146.854 111.748 147.374 111.473 147.879C110.355 149.976 109.054 151.859 107.554 153.481C107.31 153.772 107.034 153.986 106.728 154.139L106.621 154.185C105.825 154.552 104.861 154.46 103.713 153.909C102.075 153.129 100.606 151.614 99.3046 149.364C98.3709 147.742 97.835 146.104 97.6973 144.42C97.6054 143.226 97.7126 142.247 98.0646 141.466C98.2024 141.145 98.3862 140.854 98.6005 140.609C99.8097 138.941 100.881 137.15 101.815 135.236C102.228 134.395 102.596 133.507 102.917 132.573C103.361 131.349 103.743 130.048 104.065 128.655C104.432 127.369 105.182 126.512 106.3 126.099C107.417 125.67 108.626 125.838 109.942 126.588C111.81 127.66 113.279 129.267 114.351 131.379C114.703 132.083 114.978 132.772 115.162 133.415C115.545 134.731 115.575 135.941 115.253 137.043Z" stroke="#2853A6" stroke-width="1.53061"/>
<path d="M53.4663 140.061C54.3541 141.867 54.7978 143.505 54.7978 145.005C54.7978 146.78 54.3235 147.974 53.4051 148.556L52.9764 148.77C51.7672 149.26 50.3131 148.801 48.6294 147.393C35.8488 136.587 25.3337 123.025 17.0684 106.694C8.81834 90.3622 4.68555 74.5816 4.68555 59.3826C4.68555 44.1836 8.78766 32.9489 17.007 26.0153C19.058 24.2857 21.2622 22.8928 23.6041 21.852L23.7267 21.7908C28.6246 19.6479 34.1498 19.0204 40.3029 19.9234C42.9202 20.2908 45.6449 20.9489 48.4918 21.8673C50.1755 22.4183 51.6447 23.6734 52.8998 25.6326C53.1447 26.0153 53.3746 26.3979 53.5736 26.7959C54.4001 28.3724 54.7978 29.9796 54.7978 31.6173C54.7978 33.1173 54.3541 34.2194 53.4663 34.9387C53.3286 35.0459 53.1908 35.153 53.0377 35.2296L52.9151 35.2908C52.1345 35.7194 51.2162 35.7959 50.1753 35.5357C49.7315 35.3979 49.2877 35.2755 48.8592 35.153C44.1449 33.9132 39.8287 33.653 35.9256 34.3724C32.0685 35.1071 28.6092 36.8061 25.5479 39.454C19.1041 45.0561 15.8898 53.8571 15.8898 65.8418C15.8898 77.8265 19.1041 90.2704 25.5479 103.143C31.9765 116.015 40.1957 126.837 50.1753 135.592C51.4764 136.786 52.5786 138.27 53.4663 140.061Z" stroke="#2853A6" stroke-width="1.53061"/>
<path d="M93.2143 60.8726C93.2908 62.0053 93.1376 62.9389 92.7549 63.6736C92.4641 64.2399 92.0356 64.6838 91.4692 65.0052C90.5356 65.5257 89.3876 65.5104 88.0407 64.944C87.2141 64.592 86.4031 64.0716 85.6378 63.3675C85.148 62.9083 84.6583 62.3726 84.1838 61.7603C82.041 59.0206 79.852 56.4491 77.602 54.0308C75.3673 51.6124 73.0869 49.4083 70.7451 47.4185C70.1328 46.8369 69.5509 46.2093 69.0305 45.5206C68.4335 44.7553 67.8978 43.9134 67.408 42.995C66.4743 41.2195 66 39.5818 66 38.0818C66 36.0461 66.6429 34.7757 67.898 34.2706C69.1531 33.7808 70.6226 34.2246 72.3063 35.6175C74.4032 37.3777 76.4539 39.2297 78.4743 41.1583C79.607 42.245 80.7246 43.3471 81.8267 44.4797C84.9032 47.6634 87.8876 51.1532 90.7805 54.9644C92.2805 56.893 93.0918 58.8675 93.2296 60.8726H93.2143Z" stroke="#2853A6" stroke-width="1.53061"/>
<path d="M46.7763 56.6172C46.2865 56.8621 45.8582 57.0764 45.5215 57.26C45.9347 57.0611 46.3477 56.8927 46.7916 56.7549C46.7763 56.709 46.7763 56.6631 46.7763 56.6172Z" stroke="#2853A6" stroke-width="1.53061"/>
<path d="M123.52 145.724C123.306 146.551 122.877 147.148 122.265 147.484L122.096 147.561L91.775 162.714C92.5403 162.224 92.9839 161.336 93.0757 160.05C93.2135 158.198 92.6321 156.147 91.3311 153.897C90.3973 152.29 89.2034 150.989 87.7493 149.979C86.3105 148.984 84.9791 148.571 83.7699 148.724C81.7189 149.045 79.5912 149.076 77.4024 148.831C75.1983 148.571 72.9483 148.096 70.6065 147.392C69.7493 147.178 68.984 147.193 68.3105 147.423L98.326 132.408C99.1372 131.918 100.101 131.811 101.219 132.086C101.785 132.255 102.352 132.423 102.918 132.561C102.596 133.494 102.229 134.382 101.816 135.224C100.882 137.137 99.8107 138.928 98.6015 140.596C98.3871 140.841 98.2034 141.132 98.0656 141.454C97.7136 142.234 97.6065 143.214 97.6983 144.408C97.8361 146.091 98.3718 147.729 99.3055 149.352C100.606 151.602 102.076 153.117 103.713 153.897C104.861 154.448 105.826 154.54 106.622 154.173L106.729 154.127L118.698 148.127H118.744L123.52 145.724Z" stroke="#2853A6" stroke-width="1.53061"/>
<path d="M114.276 113.992C114.276 113.992 114.153 114.084 114.092 114.129L113.74 114.313C112.699 114.788 111.383 114.573 109.807 113.655C108.49 112.905 107.311 111.68 106.225 109.997C105.153 108.298 104.434 106.599 104.067 104.885C103.883 103.859 103.668 102.834 103.439 101.823C102.98 99.757 102.444 97.6907 101.816 95.6396C100.883 92.5784 99.8115 89.5784 98.6023 86.6396C97.8523 84.9253 97.5613 83.3029 97.6991 81.7723C97.8368 80.2417 98.3727 79.2162 99.3064 78.6804L99.7196 78.4815C100.914 77.9917 102.245 78.206 103.714 79.1396C105.352 80.1958 106.623 81.7876 107.556 83.9304C108.903 86.9611 110.113 90.007 111.169 93.1141C111.567 94.308 111.949 95.5172 112.317 96.7264C113.633 101.058 114.658 105.328 115.393 109.507C115.776 111.65 115.393 113.15 114.276 113.992Z" stroke="#2853A6" stroke-width="1.53061"/>
<path d="M101.818 95.6279C102.446 97.6789 102.981 99.7452 103.441 101.812C101.068 103.618 98.2824 105.301 95.0682 106.847L94.8234 106.97L76.3948 116.184L67.4865 120.638C67.4865 120.638 67.4406 120.623 67.4559 120.607C70.5171 118.893 73.1346 117.056 75.2928 115.082C76.4255 114.041 77.4357 112.97 78.3081 111.852C81.3846 107.949 82.9306 103.587 82.9306 98.7809C82.9306 97.4187 82.8539 96.0564 82.7161 94.6789C82.0886 88.5564 80.0375 82.4187 76.5631 76.3115C74.711 73.0666 72.6603 70.1585 70.3797 67.6177C67.4562 64.3115 64.1651 61.6024 60.5375 59.5054C55.1957 56.4289 50.6192 55.5105 46.7927 56.7503C46.7773 56.7044 46.7773 56.6585 46.7773 56.6126C51.3233 54.286 61.7773 49.0973 69.0171 45.5156C69.5375 46.2044 70.1193 46.832 70.7316 47.3983C73.0734 49.4034 75.354 51.6075 77.5887 54.0258C79.8387 56.4442 82.0277 59.0156 84.1705 61.7554C84.645 62.3677 85.1346 62.9034 85.6244 63.3626C86.3897 64.0666 87.2007 64.5871 88.0272 64.9391C89.3741 65.5054 90.5225 65.5207 91.4562 65.0003L93.2163 64.1126L105.354 58.0513C105.981 59.0003 106.578 59.9799 107.16 61.0054C109.303 64.7707 110.895 68.5513 111.966 72.332L99.7061 78.4697L99.2928 78.6687C98.3591 79.2044 97.8233 80.2299 97.6855 81.7605C97.5478 83.2911 97.8387 84.9136 98.5887 86.6279C99.7979 89.5666 100.869 92.5666 101.803 95.6279H101.818Z" stroke="#2853A6" stroke-width="1.53061"/>
<path d="M82.7137 94.6815C82.0862 88.559 80.0351 82.4213 76.5606 76.3141C74.7086 73.0692 72.6579 70.1611 70.3773 67.6203C67.4538 64.3141 64.1627 61.605 60.5351 59.508C55.1933 56.4315 50.6169 55.5131 46.7904 56.7529C46.3465 56.8907 45.9334 57.059 45.5201 57.258C44.9385 57.5488 44.6016 57.7325 44.5098 57.7937C41.3108 59.7376 39.321 63.0743 38.5252 67.8192C38.2649 69.3652 38.1426 71.0641 38.1426 72.9162C38.1426 77.7376 39.6732 83.8754 42.7497 91.3294C45.8416 98.7835 50.4487 107.554 56.6171 117.641C57.0763 118.437 57.6577 119.171 58.3618 119.845C59.0659 120.518 59.7851 121.069 60.5351 121.498C61.2698 121.926 62.0048 122.217 62.6936 122.355C63.3977 122.493 63.9792 122.431 64.4536 122.156L65.5863 121.59C66.2292 121.268 66.8567 120.931 67.4536 120.61C70.5149 118.896 73.1324 117.059 75.2905 115.085C76.4232 114.044 77.4332 112.972 78.3057 111.855C81.3822 107.952 82.9283 103.59 82.9283 98.7835C82.9283 97.4213 82.8515 96.059 82.7137 94.6815ZM64.8057 92.0794C63.6271 92.7529 62.2035 92.5999 60.5351 91.6356C58.8515 90.656 57.428 89.1713 56.2647 87.1509C55.1015 85.1458 54.5047 83.1713 54.5047 81.2427C54.5047 79.3141 55.1015 78.0284 56.2647 77.355C57.428 76.6968 58.8515 76.8499 60.5351 77.8141C62.2035 78.7784 63.6271 80.2784 64.8057 82.2835C65.969 84.3039 66.5507 86.2631 66.5507 88.1917C66.5507 90.1203 65.969 91.4213 64.8057 92.0794Z" fill="#2853A6" stroke="#2853A6" stroke-width="1.53061"/>
<path d="M85.407 129.699C85.407 131.735 84.7949 132.99 83.5857 133.465L53.402 148.556C54.3204 147.975 54.7947 146.781 54.7947 145.005C54.7947 143.505 54.3512 141.868 53.4634 140.062C52.5757 138.271 51.4733 136.786 50.1723 135.592C40.1927 126.837 31.9736 116.016 25.545 103.143C19.1012 90.2708 15.8867 77.8422 15.8867 65.8422C15.8867 53.8422 19.1012 45.0565 25.545 39.4544C28.6063 36.8065 32.0654 35.1075 35.9226 34.3728C39.8256 33.6534 44.142 33.9136 48.8563 35.1534C47.2644 39.5003 46.499 44.6279 46.499 50.536C46.499 52.5565 46.5907 54.5769 46.7743 56.6126C46.2845 56.8575 45.8563 57.0718 45.5195 57.2554C44.9379 57.5463 44.601 57.7299 44.5092 57.7912C41.3102 59.735 39.3204 63.0718 38.5246 67.8167C38.2643 69.3626 38.142 71.0616 38.142 72.9136C38.142 77.735 39.6726 83.8728 42.7491 91.3269C45.841 98.781 50.4481 107.551 56.6165 117.638C57.0756 118.434 57.6571 119.169 58.3612 119.842C59.0653 120.516 59.7845 121.067 60.5345 121.495C61.2692 121.924 62.0042 122.215 62.693 122.352C63.3971 122.49 63.9786 122.429 64.453 122.153L67.4837 120.638L76.3918 116.184C77.8153 117.592 79.2845 118.97 80.7845 120.286C82.0856 121.48 83.1879 122.965 84.0757 124.755C84.9634 126.562 85.407 128.199 85.407 129.699Z" stroke="#2853A6" stroke-width="1.53061"/>
<path d="M85.408 16.317C85.408 17.817 84.9644 18.919 84.0767 19.6384C83.9236 19.7609 83.7857 19.8527 83.6173 19.9445L83.1428 20.1741L53.0357 35.2354C53.1887 35.1588 53.3267 35.0517 53.4644 34.9445C54.3522 34.2251 54.7957 33.1231 54.7957 31.6231C54.7957 29.9853 54.3981 28.3782 53.5715 26.8017C53.3726 26.4037 53.1427 26.0211 52.8978 25.6384C51.6427 23.6792 50.1736 22.4241 48.4899 21.8731C45.643 20.9547 42.9183 20.2966 40.301 19.9292C34.1479 19.0262 28.6226 19.6537 23.7246 21.7966L51.2603 8.09763L51.3826 8.03639C58.9438 3.50577 68.2042 3.01599 79.1022 6.56701C80.7858 7.11803 82.2549 8.37312 83.51 10.3323C84.7804 12.2762 85.408 14.2813 85.408 16.317Z" stroke="#2853A6" stroke-width="1.53061"/>
<path d="M23.6045 21.8516L22.9004 22.2036" stroke="#2853A6" stroke-width="1.53061"/>
<path d="M123.827 45.5679C123.965 47.573 123.383 48.9506 122.082 49.7006L121.745 49.8689L105.368 58.0577L93.2299 64.1189L91.4694 65.0067C92.0357 64.6853 92.4644 64.2414 92.7553 63.675C93.1379 62.9404 93.2911 62.0067 93.2146 60.874C93.0768 58.8689 92.2655 56.8944 90.7655 54.9659C87.8726 51.1546 84.8881 47.6648 81.8115 44.4812C80.7095 43.3485 79.5918 42.2465 78.4592 41.1597C76.4388 39.2312 74.3882 37.3791 72.2913 35.6189C70.6076 34.2261 69.1379 33.7822 67.8828 34.272L98.0512 19.1955L98.4951 18.9659C99.7502 18.4761 101.22 18.92 102.904 20.3128C106.164 23.0526 109.347 26.0067 112.424 29.1751C115.5 32.3587 118.485 35.8485 121.378 39.6597C122.878 41.5883 123.689 43.5628 123.827 45.5679Z" stroke="#2853A6" stroke-width="1.53061"/>
<path d="M144.885 98.6735C144.748 98.7806 144.61 98.8725 144.457 98.949L114.089 114.117C114.089 114.117 114.212 114.026 114.273 113.98C115.39 113.138 115.773 111.638 115.39 109.495C114.656 105.316 113.63 101.046 112.314 96.7143C111.946 95.5051 111.564 94.2959 111.166 93.1021C110.11 89.9949 108.9 86.949 107.553 83.9184C106.62 81.7755 105.349 80.1837 103.712 79.1276C102.242 78.1939 100.911 77.9796 99.7168 78.4694L111.977 72.3317L129.916 63.3623C131.217 62.6276 132.686 62.7806 134.324 63.8214C135.962 64.8776 137.232 66.4694 138.166 68.6123C140.033 72.8061 141.625 77.0612 142.926 81.4082C144.242 85.7398 145.268 90.0102 146.003 94.1888C146.385 96.3317 146.003 97.8317 144.885 98.6735Z" stroke="#2853A6" stroke-width="1.53061"/>
<path d="M145.867 121.73C145.132 125.159 144.122 128.25 142.867 131.006C141.597 133.745 140.035 136.148 138.168 138.169C137.938 138.444 137.678 138.643 137.387 138.781L137.28 138.842L137.189 138.888L123.52 145.73L118.745 148.133H118.699L106.73 154.133C107.036 153.98 107.311 153.766 107.556 153.475C109.056 151.852 110.357 149.97 111.474 147.873C111.75 147.368 112.01 146.847 112.255 146.312C113.51 143.557 114.52 140.465 115.255 137.036C115.576 135.934 115.546 134.725 115.163 133.409C114.98 132.766 114.704 132.077 114.352 131.373C113.281 129.261 111.811 127.654 109.943 126.582C108.627 125.832 107.418 125.664 106.301 126.092L136.27 111.108L136.913 110.786C138.03 110.358 139.239 110.526 140.556 111.276C142.423 112.347 143.893 113.955 144.964 116.067C146.036 118.194 146.341 120.077 145.867 121.73Z" stroke="#2853A6" stroke-width="1.53061"/>
<path d="M106.623 154.18L106.531 154.226" stroke="#2853A6" stroke-width="1.53061"/>
<path d="M68.3109 147.422L68.173 147.483C67.8669 147.606 67.5764 147.774 67.3162 147.988C66.4284 148.708 65.9844 149.81 65.9844 151.31C65.9844 153.452 66.6272 155.503 67.8823 157.462C69.1374 159.422 70.607 160.677 72.2907 161.212C75.5509 162.238 78.7038 162.942 81.7344 163.294C84.765 163.646 87.7345 163.6 90.6274 163.126C91.0407 163.064 91.3927 162.942 91.6988 162.758L91.7753 162.712" stroke="#2853A6" stroke-width="1.53061"/>
<path d="M91.7757 162.719L91.6992 162.765" stroke="#2853A6" stroke-width="1.53061"/>
<path d="M66.5519 88.1903C66.5519 90.1189 65.9701 91.4199 64.8069 92.0781C63.6283 92.7516 62.2047 92.5985 60.5363 91.6342C58.8526 90.6546 57.4292 89.1699 56.2659 87.1495C55.1026 85.1444 54.5059 83.1699 54.5059 81.2414C54.5059 79.3128 55.1026 78.0271 56.2659 77.3536C57.4292 76.6954 58.8526 76.8485 60.5363 77.8128C62.2047 78.7771 63.6283 80.2771 64.8069 82.2822C65.9701 84.3026 66.5519 86.2618 66.5519 88.1903Z" stroke="#2853A6" stroke-width="1.53061"/>
<path d="M144.505 98.9375L144.459 98.9528" stroke="#2853A6" stroke-width="1.53061"/>
<path d="M114.094 114.125L113.742 114.309" stroke="#2853A6" stroke-width="1.53061"/>
</svg>
