<svg width="64" height="64" viewBox="0 0 64 64" fill="none" xmlns="http://www.w3.org/2000/svg">
<path d="M4 22.7604H60M47.5556 35.2092L16.4444 35.2049M26.8147 47.6509L16.4444 47.6493M16.4444 4.09375V10.316M47.5556 4.09375V10.316M13.9556 60.0938H50.0444C53.5292 60.0938 55.2717 60.0937 56.6027 59.4155C57.7734 58.8191 58.7254 57.8671 59.3218 56.6964C60 55.3655 60 53.6229 60 50.1382V20.2715C60 16.7867 60 15.0444 59.3218 13.7134C58.7254 12.5426 57.7734 11.5907 56.6027 10.9942C55.2717 10.316 53.5292 10.316 50.0444 10.316H13.9556C10.4708 10.316 8.72839 10.316 7.3974 10.9942C6.22659 11.5907 5.27472 12.5426 4.67819 13.7134C4 15.0444 4 16.7867 4 20.2715V50.1382C4 53.6229 4 55.3655 4.67819 56.6964C5.27472 57.8671 6.22659 58.8191 7.3974 59.4155C8.72839 60.0937 10.4708 60.0938 13.9556 60.0938Z" stroke="#3C7939" stroke-width="6.22222" stroke-linecap="round" stroke-linejoin="round"/>
</svg>
