<svg width="82" height="57" viewBox="0 0 82 57" fill="none" xmlns="http://www.w3.org/2000/svg">
<path fill-rule="evenodd" clip-rule="evenodd" d="M17.7952 23.8402C17.7952 25.6396 19.241 27.0532 21.0082 27.0532C22.7754 27.0532 24.2212 25.6074 24.2212 23.8402C24.2212 22.073 22.7754 20.6272 21.0082 20.6272C19.241 20.6272 17.7952 22.073 17.7952 23.8402ZM75.4719 23.3542C75.4719 25.1214 74.0261 26.5672 72.2589 26.5672C70.4921 26.5672 69.0462 25.1537 69.0459 23.3545C69.0459 21.5874 70.4917 20.1415 72.2589 20.1415C74.0261 20.1415 75.4719 21.5871 75.4719 23.3542ZM56.1205 4.68797C56.1205 7.226 54.032 9.28219 51.4939 9.28219C48.9236 9.28219 46.8674 7.226 46.8674 4.68797C46.8674 2.14994 48.9236 0.09375 51.4939 0.09375C54.0643 0.09375 56.1205 2.14994 56.1205 4.68797ZM81.2872 40.3195V32.222C81.1596 30.0053 79.168 28.1754 76.887 28.1751H68.2408C68.2293 28.1751 66.8622 28.053 65.2456 27.9081L61.7426 15.6432C60.2971 10.5669 56.0239 10.7277 56.0239 10.7277H46.9637C46.9637 10.7277 42.7228 10.5669 41.245 15.6432L40.0057 19.9261L34.9916 19.9571C33.8403 19.9558 33.1724 20.7075 33.1017 21.6945C33.0907 21.7006 33.0796 21.7065 33.0685 21.7124C33.0391 21.728 33.0097 21.7436 32.9818 21.7635L21.3823 30.1085H4.00584H1.19348V32.4007H3.532V35.191C3.532 37.3834 5.32569 39.1771 7.51809 39.1771H8.77719L4.78087 42.0521V45.8515C2.45834 46.3637 0.714844 48.4371 0.714844 50.9112C0.714844 53.7687 3.03961 56.0934 5.89673 56.0934C8.75385 56.0934 11.0786 53.769 11.0786 50.9115C11.0786 48.4944 9.41505 46.4586 7.17246 45.8889V43.2783L12.8723 39.1777H16.7404L22.3376 46.8244C21.4686 47.8086 20.9395 49.0999 20.9395 50.5132C20.9395 53.5903 23.4426 56.0938 26.5197 56.0938C29.5968 56.0938 32.1003 53.5903 32.1003 50.5132C32.1003 47.4361 29.5968 44.9326 26.5197 44.9326C25.7182 44.9326 24.9559 45.1039 24.2663 45.4096L19.7047 39.1774H27.9998C30.1922 39.1774 31.9859 37.3837 31.9859 35.1913V32.401H34.1782V30.1089H31.5123H25.4774L34.309 23.7552C34.4967 23.8265 34.6981 23.8677 34.9098 23.8683L41.2622 23.8076C42.2527 23.798 43.1195 23.1384 43.3923 22.1859L44.8429 17.1214H46.5781L41.4055 38.583H46V53.8118C46 55.0636 46.9934 56.0905 48.2765 56.0931C49.5554 56.0957 50.5622 54.9868 50.5622 53.7079V38.583H52.4899V53.7504C52.4899 54.8148 53.1927 55.7849 54.2286 56.0292C55.7128 56.3789 57.0522 55.242 57.0522 53.8118V38.583H61.5501L56.4095 17.1533H58.1444L61.5907 29.0793C61.7998 29.8016 62.3968 30.3052 63.0896 30.4321L63.091 30.4335L63.0925 30.4347C63.637 30.5622 66.1559 31.2263 68.0196 31.7411V54.1997C68.0196 55.225 68.8534 56.0931 69.913 56.0931C70.9429 56.0931 71.811 55.2593 71.811 54.1997V42.9832H73.2875V54.1997C73.2875 55.225 74.1213 56.0931 75.1512 56.0931C76.1766 56.0931 77.0446 55.2593 77.0446 54.1997V33.2176H78.4914V40.3195C78.4914 41.0894 79.1341 41.7321 79.9043 41.7321C80.6787 41.7321 81.2872 41.0897 81.2872 40.3195ZM3.90352 50.9115C3.90352 49.8123 4.79781 48.9183 5.89673 48.9183C6.99565 48.9183 7.88994 49.8123 7.88994 50.9115C7.88994 52.0108 6.99597 52.9047 5.89673 52.9047C4.79749 52.9047 3.90352 52.0108 3.90352 50.9115ZM26.5197 52.9044C25.2012 52.9044 24.1285 51.8317 24.1285 50.5128C24.1285 49.1939 25.2015 48.1212 26.5197 48.1212C27.8386 48.1212 28.9113 49.1939 28.9113 50.5128C28.9113 51.8317 27.8386 52.9044 26.5197 52.9044Z" fill="#3C7939"/>
<path d="M15.7425 28.5144V13.6158C7.70385 13.636 1.19348 20.1579 1.19348 28.2013C1.19348 28.3062 1.1986 28.4098 1.20084 28.5144H15.7425Z" fill="#D45815"/>
</svg>
