<svg width="20" height="20" viewBox="0 0 20 20" fill="none" xmlns="http://www.w3.org/2000/svg">
<path d="M14.1626 3.33203H5.82923C2.63757 3.33203 1.7459 4.0987 1.6709 7.08203C3.27923 7.08203 4.57923 8.39036 4.57923 9.9987C4.57923 11.607 3.27923 12.907 1.6709 12.9154C1.7459 15.8987 2.63757 16.6654 5.82923 16.6654H14.1626C17.4959 16.6654 18.3292 15.832 18.3292 12.4987V7.4987C18.3292 4.16536 17.4959 3.33203 14.1626 3.33203Z" stroke="#8B8B8B" stroke-width="1.25" stroke-linecap="round" stroke-linejoin="round"/>
<path d="M7.49414 3.33203V6.2487" stroke="#8B8B8B" stroke-width="1.25" stroke-linecap="round" stroke-linejoin="round"/>
<path d="M7.49414 13.75V16.6667" stroke="#8B8B8B" stroke-width="1.25" stroke-linecap="round" stroke-linejoin="round"/>
<path d="M12.521 7.77578L13.0377 8.81745C13.0877 8.91745 13.1877 8.99245 13.296 9.00912L14.446 9.17578C14.7293 9.21745 14.846 9.56745 14.6377 9.76745L13.8043 10.5758C13.721 10.6508 13.6877 10.7674 13.7043 10.8841L13.9043 12.0258C13.9543 12.3091 13.6543 12.5258 13.4043 12.3924L12.3793 11.8508C12.2793 11.8008 12.1543 11.8008 12.0543 11.8508L11.0293 12.3924C10.771 12.5258 10.4793 12.3091 10.5293 12.0258L10.7293 10.8841C10.746 10.7674 10.7127 10.6591 10.6293 10.5758L9.80434 9.76745C9.59601 9.56745 9.71268 9.21745 9.99601 9.17578L11.146 9.00912C11.2627 8.99245 11.3543 8.92578 11.4043 8.81745L11.9127 7.77578C12.0293 7.51745 12.396 7.51745 12.521 7.77578Z" stroke="#8B8B8B" stroke-width="1.25" stroke-linecap="round" stroke-linejoin="round"/>
</svg>
